<?xml version="1.0" encoding="utf-8"?>
<!-- Generator: Adobe Illustrator 22.0.1, SVG Export Plug-In . SVG Version: 6.00 Build 0)  -->
<svg version="1.1" xmlns="http://www.w3.org/2000/svg" xmlns:xlink="http://www.w3.org/1999/xlink" x="0px" y="0px"
	 viewBox="0 0 140 140" style="enable-background:new 0 0 140 140;" xml:space="preserve">
<style type="text/css">
	.c5{fill:#FFFFFF;}
	.c2{fill:#333333;}
	.c7{opacity:0.4;fill:#FFFFFF;}
	.st0{fill:#33A5E5;stroke:#004EA1;stroke-width:1.5;stroke-linecap:round;stroke-linejoin:round;stroke-miterlimit:10;}
	.st1{fill:#33A5E5;}
	.st2{fill:#CCCCCC;}
	.st3{opacity:0.3;fill:#FFFFFF;}
	.st4{opacity:0.6;fill:#CCCCCC;}
	.st5{fill:none;stroke:#004EA1;stroke-width:1.5;stroke-linecap:round;stroke-linejoin:round;stroke-miterlimit:10;}
	.st6{opacity:0.5;fill:#CCCCCC;}
	.st7{fill:#FCE97A;}
	.st8{fill:none;stroke:#004EA1;stroke-miterlimit:10;}
	.st9{fill:#E6E6E6;}
	.st10{fill:none;stroke:#FFFFFF;stroke-width:1.5;stroke-linecap:round;stroke-linejoin:round;stroke-miterlimit:10;}
	.st11{fill:none;stroke:#333333;stroke-linecap:round;stroke-linejoin:round;stroke-miterlimit:10;}
	.st12{fill:#FFD939;stroke:#333333;stroke-width:1.5;stroke-linecap:round;stroke-linejoin:round;stroke-miterlimit:10;}
	.st13{opacity:0.4;fill:#FFFFFF;}
	.st14{clip-path:url(#SVGID_2_);}
	.st15{fill:url(#SVGID_3_);}
	.st16{fill:url(#SVGID_4_);}
	.st17{fill:url(#SVGID_5_);}
	.st18{fill:url(#SVGID_6_);}
	.st19{fill:url(#SVGID_7_);}
	.st20{opacity:0.4;}
	.st21{fill:#FFFFFF;}
	.st22{opacity:0.7;fill:#FFFFFF;}
	.st23{opacity:0.4;fill:#CCCCCC;}
	.st24{clip-path:url(#SVGID_9_);}
	.st25{fill:#E54C4C;}
	.st26{fill:#F45B5B;}
	.st27{clip-path:url(#SVGID_9_);fill:none;stroke:#004EA1;stroke-width:1.5;stroke-linecap:round;stroke-linejoin:round;stroke-miterlimit:10;}
	.st28{fill:none;stroke:#004EA1;stroke-width:2;stroke-linecap:round;stroke-linejoin:round;stroke-miterlimit:10;}
	.st29{fill:#FCDE63;stroke:#004EA1;stroke-miterlimit:10;}
	.st30{fill:url(#SVGID_10_);}
	.st31{fill:url(#SVGID_11_);}
	.st32{fill:url(#SVGID_12_);}
	.st33{fill:url(#SVGID_13_);}
	.st34{fill:url(#SVGID_14_);}
	.st35{opacity:0.3;fill:#F2F2F2;}
	.st36{fill:none;stroke:#004EA1;stroke-linecap:round;stroke-linejoin:round;stroke-miterlimit:10;}
	.st37{fill:#FCDE63;}
	.st38{fill:url(#SVGID_15_);}
	.st39{fill:url(#SVGID_16_);}
	.st40{fill:url(#SVGID_17_);}
	.st41{fill:url(#SVGID_18_);}
	.st42{fill:url(#SVGID_19_);}
</style>
<g id="p4">
	<g>
		<g>
			<path class="st1" d="M98.8,10.6L83,10.5c-2-6.4-8-7.4-8-7.4c3.2,1.7,0.9,6.4,0.9,6.4C73.7,0,64.5,2.2,64.5,2.2
				c3.5,0.5,2.7,5.7,2.7,5.7C64.5,2.2,56,5.4,56,5.4c4.6,0.5,6,4.8,6.1,5.1l-20.7-0.1c-9.4,0-17,7.5-17,16.9l-0.1,34
				c0,9.4,7.5,17,16.9,17l57.4,0.2c9.4,0,17-7.5,17-16.9l0.1-34C115.8,18.3,108.2,10.6,98.8,10.6z"/>
			<path class="st4" d="M115.6,54.6c0,9.4-7.7,17-17,16.9l-57.4-0.2c-9.2,0-16.7-7.4-16.9-16.6l0,6.5c0,9.4,7.5,17,16.9,17l57.4,0.2
				c9.4,0,17-7.5,17-16.9l0.1-34c0-0.2,0-0.3,0-0.5L115.6,54.6z"/>
			<g>
				<path class="st3" d="M75.9,9.4c1.8,0.6,5.6,2.3,7.1,7.2l15.8,0.1c9.2,0,16.7,7.4,16.9,16.6l0-5.6c0-9.4-7.5-17-16.9-17L83,10.5
					c-2-6.4-8-7.4-8-7.4C78,4.7,76.2,8.7,75.9,9.4z"/>
				<path class="st3" d="M24.4,33.3c0-9.4,7.7-17,17-16.9l20.7,0.1c-0.1-0.3-1.5-4.6-6.1-5.1c0,0,8.5-3.2,11.2,2.5
					c0,0,0.7-5.3-2.7-5.7c0,0,9.2-2.2,11.4,7.3c0,0,2.4-4.6-0.9-6.4c0,0,0.3,0.1,0.8,0.2C73.7,0,64.5,2.2,64.5,2.2
					c3.5,0.5,2.7,5.7,2.7,5.7C64.5,2.2,56,5.4,56,5.4c4.6,0.5,6,4.8,6.1,5.1l-20.7-0.1c-9.4,0-17,7.5-17,16.9l-0.1,34
					c0,0.1,0,0.3,0,0.4L24.4,33.3z"/>
			</g>
			<path class="st37" d="M97.7,66.4H40.3c-4.9,0-8.8-3.9-8.8-8.8V35.3c0-4.9,3.9-8.8,8.8-8.8h57.4c4.9,0,8.8,3.9,8.8,8.8v22.4
				C106.5,62.5,102.6,66.4,97.7,66.4z"/>
			<path class="st9" d="M97.7,66.4H40.3c-4.9,0-8.8-3.9-8.8-8.8V35.3c0-4.9,3.9-8.8,8.8-8.8h57.4c4.9,0,8.8,3.9,8.8,8.8v22.4
				C106.5,62.5,102.6,66.4,97.7,66.4z"/>
			<path class="st7" d="M106.8,39.9c0-4.9-3.9-8.8-8.8-8.8H40.6c-4.9,0-8.8,3.9-8.8,8.8v17.4c0,4.9,3.9,8.8,8.8,8.8H98
				c4.9,0,8.8-3.9,8.8-8.8V39.9z"/>
			<path class="st8" d="M106.5,57.4c0,5-4,9-9,9h-57c-5,0-9-4-9-9v-22c0-5,4-9,9-9h57c5,0,9,4,9,9V57.4z"/>
			
				<ellipse transform="matrix(0.2283 -0.9736 0.9736 0.2283 53.6408 154.3326)" class="st1" cx="124.2" cy="43.3" rx="15.1" ry="15.1"/>
			
				<ellipse transform="matrix(0.7071 -0.7071 0.7071 0.7071 -26.0032 23.8829)" class="st1" cx="15.8" cy="43.3" rx="15.1" ry="15.1"/>
			<g>
				<path class="st5" d="M118.1,37.5c3.3-3.3,8.8-3.3,12.1,0c3.3,3.3,3.3,8.8,0,12.1"/>
				<path class="st5" d="M123,46c-2.1-2.1-2.1-5.5,0-7.6c2.1-2.1,5.5-2.1,7.6,0"/>
			</g>
			<g>
				<path class="st5" d="M21.4,37.5c-3.3-3.3-8.8-3.3-12.1,0c-3.3,3.3-3.3,8.8,0,12.1"/>
				<path class="st5" d="M16.4,46c2.1-2.1,2.1-5.5,0-7.6c-2.1-2.1-5.5-2.1-7.6,0"/>
			</g>
			<g>
				<g>
					<path class="st21" d="M36.4,60.4c-0.1,0-0.2,0-0.3,0c-0.5-0.1-0.8-0.7-0.7-1.2l0.9-3.4c0.1-0.5,0.7-0.8,1.2-0.7
						c0.5,0.1,0.8,0.7,0.7,1.2l-0.9,3.4C37.2,60.1,36.8,60.4,36.4,60.4z"/>
				</g>
				<g>
					<path class="st21" d="M39.8,60.4c-0.1,0-0.2,0-0.3,0c-0.5-0.1-0.8-0.7-0.7-1.2l0.9-3.4c0.1-0.5,0.7-0.8,1.2-0.7
						c0.5,0.1,0.8,0.7,0.7,1.2l-0.9,3.4C40.6,60.1,40.2,60.4,39.8,60.4z"/>
				</g>
				<g>
					<path class="st21" d="M103.1,60.4c-0.4,0-0.8-0.3-1-0.7l-0.9-3.4c-0.1-0.5,0.2-1.1,0.7-1.2c0.5-0.1,1.1,0.2,1.2,0.7l0.9,3.4
						c0.1,0.5-0.2,1.1-0.7,1.2C103.3,60.3,103.2,60.4,103.1,60.4z"/>
				</g>
				<g>
					<path class="st21" d="M99.7,60.4c-0.4,0-0.8-0.3-1-0.7l-0.9-3.4c-0.1-0.5,0.2-1.1,0.7-1.2c0.5-0.1,1.1,0.2,1.2,0.7l0.9,3.4
						c0.1,0.5-0.2,1.1-0.7,1.2C99.9,60.4,99.8,60.4,99.7,60.4z"/>
				</g>
			</g>
			<g>
				<path class="st36" d="M118.1,37.5c3.3-3.3,8.8-3.3,12.1,0c3.3,3.3,3.3,8.8,0,12.1"/>
				<path class="st36" d="M123,46c-2.1-2.1-2.1-5.5,0-7.6c2.1-2.1,5.5-2.1,7.6,0"/>
			</g>
			<g>
				<path class="st36" d="M21.4,37.5c-3.3-3.3-8.8-3.3-12.1,0c-3.3,3.3-3.3,8.8,0,12.1"/>
				<path class="st36" d="M16.4,46c2.1-2.1,2.1-5.5,0-7.6c-2.1-2.1-5.5-2.1-7.6,0"/>
			</g>
			<path class="st5" d="M98.8,10.6L83,10.5c-2-6.4-8-7.4-8-7.4c3.2,1.7,0.9,6.4,0.9,6.4C73.7,0,64.5,2.2,64.5,2.2
				c3.5,0.5,2.7,5.7,2.7,5.7C64.5,2.2,56,5.4,56,5.4c4.6,0.5,6,4.8,6.1,5.1l-20.7-0.1c-9.4,0-17,7.5-17,16.9l-0.1,34
				c0,9.4,7.5,17,16.9,17l57.4,0.2c9.4,0,17-7.5,17-16.9l0.1-34C115.8,18.3,108.2,10.6,98.8,10.6z"/>
			<path class="st5" d="M124.2,28.2c-3.1,0-6,1-8.4,2.6l-0.1,25c2.4,1.7,5.4,2.6,8.5,2.6c8.3,0,15.1-6.8,15.1-15.1
				C139.3,35,132.5,28.2,124.2,28.2z"/>
			<path class="st5" d="M24.4,30.9c-2.4-1.7-5.4-2.6-8.5-2.6C7.5,28.2,0.7,35,0.7,43.3c0,8.3,6.8,15.1,15.1,15.1c3.1,0,6-1,8.4-2.6
				L24.4,30.9z"/>
			<circle class="c2" cx="44" cy="43.4" r="7.2"/>
			<g>
				<path class="c5" d="M50.2,41.4c0,2-1.6,3.6-3.6,3.6
					c-2,0-3.6-1.6-3.6-3.6c0-2,1.6-3.6,3.6-3.6C48.5,37.7,50.2,39.4,50.2,41.4z"/>
				<path class="c5" d="M44.2,47c0,1.4-1.1,2.5-2.5,2.5
					c-1.4,0-2.5-1.1-2.5-2.5c0-1.4,1.1-2.5,2.5-2.5C43.1,44.5,44.2,45.6,44.2,47z"/>
				<path class="c5" d="M48.5,46.8c0,0.7-0.6,1.3-1.3,1.3
					c-0.7,0-1.3-0.6-1.3-1.3c0-0.7,0.6-1.4,1.3-1.4C47.9,45.4,48.5,46,48.5,46.8z"/>
				<path class="c5" d="M41.3,43c0,0.7-0.6,1.3-1.3,1.3
					c-0.7,0-1.3-0.6-1.3-1.3c0-0.7,0.6-1.3,1.3-1.3C40.7,41.7,41.3,42.3,41.3,43z"/>
			</g>
			<g>
				<circle class="c2" cx="92.5" cy="43.4" r="7.2"/>
				<g>
					<path class="c5" d="M86.8,41.4c0,2,1.6,3.6,3.6,3.6
						c2,0,3.6-1.6,3.6-3.6c0-2-1.6-3.6-3.6-3.6C88.4,37.7,86.8,39.4,86.8,41.4z"/>
					<circle class="c5" cx="95.2" cy="47" r="2.5"/>
					<path class="c5" d="M88.4,46.8c0,0.7,0.6,1.3,1.3,1.3
						c0.7,0,1.3-0.6,1.3-1.3c0-0.7-0.6-1.4-1.3-1.4C89,45.4,88.4,46,88.4,46.8z"/>
					<path class="c5" d="M95.6,43c0,0.7,0.6,1.3,1.3,1.3
						c0.7,0,1.3-0.6,1.3-1.3c0-0.7-0.6-1.3-1.3-1.3C96.2,41.7,95.6,42.3,95.6,43z"/>
				</g>
			</g>
			<path class="st25" d="M77.4,55.8c0.8,1.5,1.3,3.2,1.3,5c0,5.7-4.6,10.4-10.4,10.4c-5.7,0-10.4-4.6-10.4-10.4c0-1.8,0.5-3.5,1.3-5
				c0,0,8.7,0.1,9.7-3.8C69,52,70.7,55.1,77.4,55.8z"/>
			<path class="st26" d="M59.1,65.4c0,0,4-4.3,9.3-1.2c0,0,4.3-3.4,9.8,1.2c0,0-3.3,6-9.8,5.7S59.1,65.4,59.1,65.4z"/>
			<g>
				<path class="st5" d="M85.2,51c0,2.7-3.6,4.8-8.1,4.8c-4.5,0-8.1-2.2-8.1-4.8c0,2.7-3.7,4.8-8.1,4.8c-4.5,0-8.1-2.2-8.1-4.8"/>
			</g>
			<path class="st5" d="M59.3,55.8c-0.8,1.5-1.3,3.2-1.3,5c0,5.7,4.6,10.4,10.4,10.4c5.7,0,10.4-4.6,10.4-10.4c0-1.8-0.5-3.5-1.3-5"
				/>
		</g>
		<path class="st0" d="M51.5,78.3H37.1c0,0-7,0.1-4.4-3.8c2.5-3.7,3.8-6.9,3.8-6.9l-9.5-2.7c0,0-5.9,8.6-5.9,14.6
			c0,2.8-0.1,5.4,5,7.7c8.9,4,22.6,7.9,22.6,7.9L51.5,78.3z"/>
		<path class="st0" d="M90.5,105.2c0,0,6.2,4.4,9.8,0c3.6-4.4,0.9-17.4,9.3-20.6s15.9,2.1,12.8,12.3c-0.4,1.2-1.8,4-4.3,3
			c-2.6-1-2.1-3.7-1.4-5.3c0.7-1.6,1.6-6.1-4.5-5.2c-7,1.1-3.5,17.5-9.6,21.5c-4.9,3.2-11.1-0.8-11.1-0.8"/>
		<g>
			<path class="st1" d="M59.9,137.5c0-5.6,3.8-10.1,8.4-10.1c4.6,0,8.4,4.5,8.4,10.1l16.8,0.5c0-32-7.3-59.9-7.3-59.9H50.5
				c0,0-7.3,28.2-7.3,59.9L59.9,137.5z"/>
			<circle class="st29" cx="68.5" cy="101.3" r="14.8"/>
			<circle class="c7" cx="68.5" cy="101.3" r="11"/>
			<path class="st2" d="M68.5,89.4c7.7,0,14,5.8,14.7,13.3c0-0.5,0.1-1,0.1-1.4c0-8.1-6.6-14.8-14.8-14.8c-8.1,0-14.8,6.6-14.8,14.8
				c0,0.5,0,1,0.1,1.4C54.5,95.2,60.8,89.4,68.5,89.4z"/>
			<linearGradient id="SVGID_2_" gradientUnits="userSpaceOnUse" x1="59.8555" y1="95.3491" x2="67.3956" y2="108.2302">
				<stop  offset="0" style="stop-color:#0068B6"/>
				<stop  offset="0.5054" style="stop-color:#004EA1"/>
				<stop  offset="1" style="stop-color:#004179"/>
			</linearGradient>
			<path style="fill:url(#SVGID_2_);" d="M65,104.1h5v-5h-5v-6h0.1c-1.7,0-5.1,1.4-5.1,4.9c0,0.7,0,1.2,0,1.2v5.2v4.7
				c0,0,0.5-0.1,1-0.1c0.4,0,4,0,4,0V104.1z"/>
			<linearGradient id="SVGID_3_" gradientUnits="userSpaceOnUse" x1="68.159" y1="93.0775" x2="77.8472" y2="108.0501">
				<stop  offset="0" style="stop-color:#7DCCF3"/>
				<stop  offset="0.5" style="stop-color:#2CA6E0"/>
				<stop  offset="1" style="stop-color:#0068B6"/>
			</linearGradient>
			<path class="st15" d="M75.7,93.1h-4.8H66v6h5v10c0,0,0.4,0,0.5,0l-0.1,0.3c1.2,0,4.6-0.2,4.6-3.6v-1.4v-5.2c0,0,0-4.2,0-4.8
				C76,93.9,75.7,93.1,75.7,93.1z"/>
			<g>
				<linearGradient id="SVGID_4_" gradientUnits="userSpaceOnUse" x1="68.1447" y1="102.0366" x2="71.0016" y2="105.0365">
					<stop  offset="0" style="stop-color:#B4B4B5"/>
					<stop  offset="0.9946" style="stop-color:#B4B4B5;stop-opacity:0"/>
				</linearGradient>
				<polygon class="st16" points="70,99.4 70,99.4 65.7,104.1 70,104.1 				"/>
				<linearGradient id="SVGID_5_" gradientUnits="userSpaceOnUse" x1="62.9984" y1="107.2089" x2="65.8308" y2="110.1829">
					<stop  offset="0" style="stop-color:#B4B4B5"/>
					<stop  offset="0.9946" style="stop-color:#B4B4B5;stop-opacity:0"/>
				</linearGradient>
				<path class="st17" d="M65,104.4l-4.7,4.8c0.1,0.1,0.5-0.1,0.7-0.1c0.4,0,4,0,4,0V104.4z"/>
			</g>
			<linearGradient id="SVGID_6_" gradientUnits="userSpaceOnUse" x1="71.5961" y1="99.6385" x2="75.386" y2="103.6179">
				<stop  offset="0" style="stop-color:#B4B4B5"/>
				<stop  offset="0.9946" style="stop-color:#B4B4B5;stop-opacity:0"/>
			</linearGradient>
			<path class="st18" d="M75.9,94.1l-4.7,5H71v10c0,0,0.4,0,0.5,0l-0.1,0.3c1.2,0,4.6-0.2,4.6-3.6v-1.4v-5.2c0,0,0-4.2,0-4.8
				C76,94.3,76,94.2,75.9,94.1z"/>
			<path class="st35" d="M83.1,99.4L70.3,86.6c-0.6-0.1-1.2-0.1-1.8-0.1c-4.2,0-7.9,1.7-10.6,4.5l20.9,20.9
				c2.8-2.7,4.5-6.5,4.5-10.6C83.3,100.6,83.2,100,83.1,99.4z"/>
			<path class="st35" d="M54.3,97.2l18.3,18.3c1.7-0.5,3.2-1.2,4.6-2.2L56.6,92.6C55.6,94,54.8,95.5,54.3,97.2z"/>
			<path class="st5" d="M60.3,137.9c0-5.6,3.4-10.5,8-10.5c4.6,0,8.4,5,8.4,10.6h16.8c0-0.3,0-0.7,0-1c0-0.4,0-0.8,0-1.2
				c-0.3-31-7.3-57.7-7.3-57.7H50.5c0,0-7.3,28.2-7.3,59.9L60.3,137.9z"/>
			<circle class="st36" cx="68.5" cy="101.3" r="14.8"/>
		</g>
		<path class="st0" d="M86.3,78.5c2.2-0.1,6.2-1,9.3,11.9c3.6,14,4.5,26.5,4.5,26.5l-7,1.3C93.1,118.3,89.8,90.6,86.3,78.5z"/>
		<circle class="st0" cx="97" cy="121" r="7.5"/>
		<circle class="st0" cx="32" cy="65" r="7.5"/>
	</g>
</g>
</svg>
