<?xml version="1.0" encoding="utf-8"?>
<!-- Generator: Adobe Illustrator 22.0.1, SVG Export Plug-In . SVG Version: 6.00 Build 0)  -->
<svg version="1.1" xmlns="http://www.w3.org/2000/svg" xmlns:xlink="http://www.w3.org/1999/xlink" x="0px" y="0px"
	 viewBox="0 0 140 140" style="enable-background:new 0 0 140 140;" xml:space="preserve">
<style type="text/css">
	.c3{fill:#CCCCCC;}
	.st0{fill:#33A5E5;stroke:#004EA1;stroke-width:1.5;stroke-linecap:round;stroke-linejoin:round;stroke-miterlimit:10;}
	.st1{fill:#33A5E5;}
	.st2{opacity:0.3;fill:#FFFFFF;}
	.st3{opacity:0.6;fill:#CCCCCC;}
	.st4{fill:none;stroke:#004EA1;stroke-width:1.5;stroke-linecap:round;stroke-linejoin:round;stroke-miterlimit:10;}
	.st5{opacity:0.5;fill:#CCCCCC;}
	.st6{fill:#FCE97A;}
	.st7{fill:none;stroke:#004EA1;stroke-miterlimit:10;}
	.st8{fill:#E6E6E6;}
	.st9{fill:none;stroke:#FFFFFF;stroke-width:1.5;stroke-linecap:round;stroke-linejoin:round;stroke-miterlimit:10;}
	.st10{fill:none;stroke:#333333;stroke-linecap:round;stroke-linejoin:round;stroke-miterlimit:10;}
	.st11{fill:#FFD939;stroke:#333333;stroke-width:1.5;stroke-linecap:round;stroke-linejoin:round;stroke-miterlimit:10;}
	.st12{opacity:0.4;fill:#FFFFFF;}
	.st13{fill:#CCCCCC;}
	.st14{clip-path:url(#SVGID_2_);}
	.st15{fill:url(#SVGID_3_);}
	.st16{fill:url(#SVGID_4_);}
	.st17{fill:url(#SVGID_5_);}
	.st18{fill:url(#SVGID_6_);}
	.st19{fill:url(#SVGID_7_);}
	.st20{opacity:0.4;}
	.st21{fill:#FFFFFF;}
	.st22{opacity:0.7;fill:#FFFFFF;}
	.st23{opacity:0.4;fill:#CCCCCC;}
	.st24{clip-path:url(#SVGID_9_);}
	.st25{fill:#E54C4C;}
	.st26{fill:#F45B5B;}
	.st27{clip-path:url(#SVGID_9_);fill:none;stroke:#004EA1;stroke-width:1.5;stroke-linecap:round;stroke-linejoin:round;stroke-miterlimit:10;}
	.st28{fill:none;stroke:#004EA1;stroke-width:2;stroke-linecap:round;stroke-linejoin:round;stroke-miterlimit:10;}
	.st29{fill:#333333;}
	.st30{fill:#FCDE63;stroke:#004EA1;stroke-miterlimit:10;}
	.st31{fill:url(#SVGID_10_);}
	.st32{fill:url(#SVGID_11_);}
	.st33{fill:url(#SVGID_12_);}
	.st34{fill:url(#SVGID_13_);}
	.st35{fill:url(#SVGID_14_);}
	.st36{opacity:0.3;fill:#F2F2F2;}
	.st37{fill:none;stroke:#004EA1;stroke-linecap:round;stroke-linejoin:round;stroke-miterlimit:10;}
	.st38{fill:#FCDE63;}
	.st39{fill:url(#SVGID_15_);}
	.st40{fill:url(#SVGID_16_);}
	.st41{fill:url(#SVGID_17_);}
	.st42{fill:url(#SVGID_18_);}
	.st43{fill:url(#SVGID_19_);}
</style>
<g id="p1">
	<g>
		<g>
			<g>
				<path class="st0" d="M67.4,81.3c0,6.3-5.1,11.4-11.4,11.4c-6.3,0-11.4-5.1-11.4-11.4c0-6.3,5.1-11.4,11.4-11.4
					C62.3,69.9,67.4,75,67.4,81.3z"/>
				
					<ellipse transform="matrix(0.2309 -0.973 0.973 0.2309 -13.7019 145.2227)" class="st0" cx="85" cy="81.3" rx="11.4" ry="11.4"/>
			</g>
			<path class="st0" d="M82.8,92.7c0,0,3.6,9.8,7.3,10c3.6,0.2,11.1-2,5.1-16.2C89.2,72.3,82.8,92.7,82.8,92.7z"/>
			<path class="st0" d="M57.2,92.7c0,0-3.6,9.8-7.3,10c-3.6,0.2-11.1-2-5.1-16.2C50.9,72.3,57.2,92.7,57.2,92.7z"/>
		</g>
		<ellipse transform="matrix(0.2283 -0.9736 0.9736 0.2283 -29.1209 48.6771)" class="st1" cx="16.1" cy="42.7" rx="15" ry="15"/>
		<path class="c3" d="M16.1,52.8c-7.4,0-13.6-5.4-14.8-12.5
			c-0.1,0.8-0.2,1.6-0.2,2.5c0,8.3,6.7,15,15,15c8.3,0,15-6.7,15-15c0-0.8-0.1-1.7-0.2-2.5C29.8,47.3,23.6,52.8,16.1,52.8z"/>
		<path class="st2" d="M16.1,32.7c7.4,0,13.6,5.4,14.8,12.5c0.1-0.8,0.2-1.6,0.2-2.5c0-8.3-6.7-15-15-15c-8.3,0-15,6.7-15,15
			c0,0.8,0.1,1.7,0.2,2.5C2.5,38.1,8.7,32.7,16.1,32.7z"/>
		<ellipse transform="matrix(0.7071 -0.7071 0.7071 0.7071 6.0772 100.0876)" class="st1" cx="123.9" cy="42.7" rx="15" ry="15"/>
		<path class="c3" d="M123.9,52.8c-7.4,0-13.6-5.4-14.8-12.5
			c-0.1,0.8-0.2,1.6-0.2,2.5c0,8.3,6.7,15,15,15c8.3,0,15-6.7,15-15c0-0.8-0.1-1.7-0.2-2.5C137.5,47.3,131.3,52.8,123.9,52.8z"/>
		<path class="st2" d="M123.9,32.7c7.4,0,13.6,5.4,14.8,12.5c0.1-0.8,0.2-1.6,0.2-2.5c0-8.3-6.7-15-15-15c-8.3,0-15,6.7-15,15
			c0,0.8,0.1,1.7,0.2,2.5C110.2,38.1,116.4,32.7,123.9,32.7z"/>
		<path class="st1" d="M98.7,10.2l-21.2-0.1c0.6-1.4,2.2-4.2,5.7-4.6c0,0-8.4-3.6-11.2,2.7c0,0-0.7-5.8,2.7-6.3c0,0-9.2-2.4-11.3,8
			c0,0-2.4-4.9,0.9-6.9c0,0-5.9,0-7.9,7l-14.8,0c-9.3,0-16.9,7.5-16.9,16.8l-0.1,33.8c0,9.3,7.5,16.9,16.8,16.9l57.1,0.2
			c9.3,0,16.9-7.5,16.9-16.8l0.1-33.8C115.5,17.8,108,10.2,98.7,10.2z"/>
		<path class="st3" d="M115.4,51.9c0,9.3-7.6,16.9-16.9,16.8l-57.1-0.2c-9,0-16.3-7.1-16.8-16l0,8c0,9.3,7.5,16.9,16.8,16.9
			l57.1,0.2c9.3,0,16.9-7.5,16.9-16.8l0.1-33.8c0-0.3,0-0.7,0-1L115.4,51.9z"/>
		<g>
			<path class="st2" d="M83.2,10.4c-3.5,0.4-5.1,3.2-5.7,4.6l21.2,0.1c9.1,0,16.5,7.3,16.8,16.3l0-4.3c0-9.3-7.5-16.9-16.8-16.9
				l-16.4-0.1C82.8,10.3,83.2,10.4,83.2,10.4z"/>
			<path class="st2" d="M73,6.6c1.1,0,1.8,0.2,1.8,0.2c-3.5,0.5-2.7,6.3-2.7,6.3c1.2-2.8,3.6-3.7,5.8-3.7c0.8-1.5,2.4-3.6,5.4-3.9
				C83.2,5.5,76.3,2.5,73,6.6z"/>
			<path class="st2" d="M24.6,31.8c0-9.3,7.6-16.9,16.9-16.8l14.8,0c1.4-4.8,4.6-6.3,6.5-6.8c-0.4-1.6-0.6-4,1.4-5.2
				c0,0-5.9,0-7.9,7l-14.8,0c-9.3,0-16.9,7.5-16.9,16.8l-0.1,33.8c0,0.2,0,0.4,0,0.7L24.6,31.8z"/>
			<path class="st2" d="M64.3,8c-0.2,0.1-0.3,0.2-0.5,0.3c-0.2,0.5-0.3,1-0.4,1.6c0,0-0.1-0.3-0.3-0.7c-1.4,2.3,0.3,5.7,0.3,5.7
				c1.4-6.7,5.6-8.1,8.5-8.2c0-1.8,0.5-4.4,2.8-4.7c0,0-8-2.1-10.8,6.1C64.2,8,64.3,8,64.3,8z"/>
		</g>
		<path class="st1" d="M61.3,138.4c0-5.8,3.9-10.4,8.7-10.4c4.8,0,8.7,4.7,8.7,10.4l17.3,0c0-33-7.6-60.3-7.6-60.3H51.6
			c0,0-7.6,27.6-7.6,60.3L61.3,138.4z"/>
		<path class="st3" d="M78.7,133.4c0-5.8-3.9-10.4-8.7-10.4c-4.8,0-8.7,4.7-8.7,10.4l-17.3,0c0,1.7-0.1,3.3-0.1,5l17.3,0
			c0-5.8,3.9-10.4,8.7-10.4c4.8,0,8.7,4.7,8.7,10.4l17.3,0c0-1.7,0-3.3-0.1-5L78.7,133.4z"/>
		<path class="st3" d="M49.2,87.7c0,0,20.5-6.3,41.3-0.5c0,0-0.2-6.1-2.8-8.8l-36.1-0.1C51.6,78.3,49.6,83.6,49.2,87.7z"/>
		<path class="c3" d="M104.1,93.9c-0.2,0.2-0.5,0.4-0.8,0.7
			c-0.4,0.2-0.9,0.4-1.4,0.4c-1.1,0-2.1-0.7-2.6-1.6c-0.2,0.4-0.3,0.8-0.3,1.2c0,1.6,1.3,2.9,2.9,2.9c0.5,0,1-0.1,1.4-0.4
			c0.3-0.2,0.5-0.4,0.8-0.7c2.6-2.4,4.3-5.9,4.3-9.7c0-0.4,0-0.8-0.1-1.2C108,88.8,106.5,91.8,104.1,93.9z"/>
		<path class="st4" d="M103.9,76.8c6.8-2.2,11.4-8.4,11.4-15.9l0.1-33.8c0-9.3-7.5-16.9-16.8-16.9l-21.4-0.1
			c0.2-0.6,1.6-4.5,5.9-4.9c0,0-8.4-3.3-11.2,2.5c0,0-0.7-5.4,2.7-5.8c0,0-9.2-2.2-11.3,7.4c0,0-2.4-4.6,0.9-6.3c0,0-6.3,0-8.1,7.1
			l-14.6,0c-9.3,0-16.9,7.5-16.9,16.8l-0.1,33.8c0,9.3,7.5,16.9,16.8,16.9l44.1,0.1"/>
		<path class="st4" d="M24.6,30.3c-2.4-1.7-5.3-2.6-8.5-2.6c-8.3,0-15,6.7-15,15c0,8.3,6.7,15,15,15c3.1,0,6-0.9,8.4-2.6L24.6,30.3z
			"/>
		<path class="st4" d="M123.9,27.7c-3.1,0-6,0.9-8.4,2.6l-0.1,24.8c2.4,1.7,5.3,2.6,8.5,2.6c8.3,0,15-6.7,15-15
			C138.9,34.4,132.1,27.7,123.9,27.7z"/>
		<path class="st4" d="M85,77.6l-33.5-0.1c0,0-7.5,27.7-7.5,60.5l17.3,0.3c0-5.8,3.9-10.4,8.7-10.4c4.8,0,8.7,4.7,8.7,10.4l17.3-0.2
			c0-25.3-4.7-47.6-6.7-56.5"/>
		<g>
			<path class="st5" d="M79.1,105.6c1.8-2.6,8.6-9.7,13.9-10.7c5.4-1,8.7-0.5,10-0.3c0,0,0.4,2.8-0.8,4.1c0,0-3.7-1.3-9.2-0.5
				c-5.6,0.8-13.8,13.1-21.7,13.5C71.3,111.8,77.7,107.5,79.1,105.6z"/>
			<path class="c3" d="M67.2,113.1c0,0-0.4,3,1.6,3
				c2,0,3.3-3.9,3.3-3.9L67.2,113.1z"/>
			<path class="st1" d="M95.2,73.4c-3.3,0-6.2,1.3-8.6,3.2C75,85.9,83.7,100.3,69.7,106c0,0-2.3,1-2.5,3.8c-0.2,3.7,1.5,3.3,1.5,3.3
				c19.9-9.2,10.9-21.5,21.5-32.1c1.3-1.1,3-1.8,4.9-1.8c4.2,0,7.5,3.4,7.5,7.5c0,2.2-1,4.3-2.6,5.6c-0.1,0.1-0.2,0.2-0.3,0.2
				c-0.5,0.5-0.9,1.2-0.9,2.1c0,1.6,1.3,2.9,2.9,2.9c0.5,0,1-0.1,1.4-0.4c0.3-0.2,0.5-0.4,0.8-0.7c2.6-2.4,4.3-5.9,4.3-9.7
				C108.4,79.4,102.5,73.4,95.2,73.4z"/>
			<g>
				<path class="st2" d="M69.7,108.8c14-5.7,5.3-20.1,16.9-29.4c2.4-1.9,5.3-3.2,8.6-3.2c6.8,0,12.5,5.2,13.2,11.8
					c0-0.5,0.1-0.9,0.1-1.4c0-7.3-5.9-13.2-13.2-13.2c-3.3,0-6.2,1.3-8.6,3.2C75,85.9,83.7,100.3,69.7,106c0,0-2.3,1-2.5,3.8
					c0,0.9,0,1.5,0.1,2C67.9,109.7,69.7,108.8,69.7,108.8z"/>
				<path class="st2" d="M100.1,95.1c1.6-1.4,2.6-3.4,2.6-5.6c0-0.5-0.1-1-0.1-1.4c-0.3,1.7-1.2,3.2-2.4,4.2
					c-0.1,0.1-0.2,0.2-0.3,0.2c-0.5,0.5-0.9,1.2-0.9,2.1c0,0.5,0.1,1,0.4,1.4c0.1-0.2,0.3-0.5,0.5-0.6
					C100,95.3,100.1,95.2,100.1,95.1z"/>
			</g>
			<path class="c3" d="M102.6,85.4c0.1-0.4,0.1-0.8,0.1-1.2
				c0-4.2-3.4-7.5-7.5-7.5c-1.9,0-3.6,0.7-4.9,1.8c-10.7,10.6-1.6,23-21.5,32.1c0,0-1,0.2-1.4-1.5c0,0.2-0.1,0.4-0.1,0.6
				c-0.2,3.7,1.5,3.3,1.5,3.3c19.9-9.2,10.9-21.5,21.5-32.1c1.3-1.1,3-1.8,4.9-1.8C98.9,79.1,102,81.9,102.6,85.4z"/>
			<path class="st4" d="M95.2,73.4c-3.3,0-6.2,1.3-8.6,3.2C75,85.9,83.7,100.3,69.7,106c0,0-2.3,1-2.5,3.8c-0.2,3.7,1.5,3.3,1.5,3.3
				c19.9-9.2,10.9-21.5,21.5-32.1c1.3-1.1,3-1.8,4.9-1.8c4.2,0,7.5,3.4,7.5,7.5c0,2.2-1,4.3-2.6,5.6c-0.1,0.1-0.2,0.2-0.3,0.2
				c-0.5,0.5-0.9,1.2-0.9,2.1c0,1.6,1.3,2.9,2.9,2.9c0.5,0,1-0.1,1.4-0.4c0.3-0.2,0.5-0.4,0.8-0.7c2.6-2.4,4.3-5.9,4.3-9.7
				C108.4,79.4,102.5,73.4,95.2,73.4z"/>
		</g>
	</g>
</g>
</svg>
