<?xml version="1.0" encoding="utf-8"?>
<!-- Generator: Adobe Illustrator 22.0.1, SVG Export Plug-In . SVG Version: 6.00 Build 0)  -->
<svg version="1.1" xmlns="http://www.w3.org/2000/svg" xmlns:xlink="http://www.w3.org/1999/xlink" x="0px" y="0px"
	 viewBox="0 0 140 140" style="enable-background:new 0 0 140 140;" xml:space="preserve">
<style type="text/css">
	.c5{fill:#FFFFFF;}
	.c2{fill:#333333;}
	.st0{fill:#33A5E5;stroke:#004EA1;stroke-width:1.5;stroke-linecap:round;stroke-linejoin:round;stroke-miterlimit:10;}
	.st1{fill:#33A5E5;}
	.st2{fill:#CCCCCC;}
	.st3{opacity:0.3;fill:#FFFFFF;}
	.st4{opacity:0.6;fill:#CCCCCC;}
	.st5{fill:none;stroke:#004EA1;stroke-width:1.5;stroke-linecap:round;stroke-linejoin:round;stroke-miterlimit:10;}
	.st6{opacity:0.5;fill:#CCCCCC;}
	.st7{fill:#FCE97A;}
	.st8{fill:none;stroke:#004EA1;stroke-miterlimit:10;}
	.st9{fill:#E6E6E6;}
	.st10{fill:none;stroke:#FFFFFF;stroke-width:1.5;stroke-linecap:round;stroke-linejoin:round;stroke-miterlimit:10;}
	.st11{fill:none;stroke:#333333;stroke-linecap:round;stroke-linejoin:round;stroke-miterlimit:10;}
	.st12{fill:#FFD939;stroke:#333333;stroke-width:1.5;stroke-linecap:round;stroke-linejoin:round;stroke-miterlimit:10;}
	.st13{opacity:0.4;fill:#FFFFFF;}
	.st14{clip-path:url(#SVGID_2_);}
	.st15{fill:url(#SVGID_3_);}
	.st16{fill:url(#SVGID_4_);}
	.st17{fill:url(#SVGID_5_);}
	.st18{fill:url(#SVGID_6_);}
	.st19{fill:url(#SVGID_7_);}
	.st20{opacity:0.4;}
	.st21{fill:#FFFFFF;}
	.st22{opacity:0.7;fill:#FFFFFF;}
	.st23{opacity:0.4;fill:#CCCCCC;}
	.st24{clip-path:url(#SVGID_9_);}
	.st25{fill:#E54C4C;}
	.st26{fill:#F45B5B;}
	.st27{clip-path:url(#SVGID_9_);fill:none;stroke:#004EA1;stroke-width:1.5;stroke-linecap:round;stroke-linejoin:round;stroke-miterlimit:10;}
	.st28{fill:none;stroke:#004EA1;stroke-width:2;stroke-linecap:round;stroke-linejoin:round;stroke-miterlimit:10;}
	.st29{fill:#FCDE63;stroke:#004EA1;stroke-miterlimit:10;}
	.st30{fill:url(#SVGID_10_);}
	.st31{fill:url(#SVGID_11_);}
	.st32{fill:url(#SVGID_12_);}
	.st33{fill:url(#SVGID_13_);}
	.st34{fill:url(#SVGID_14_);}
	.st35{opacity:0.3;fill:#F2F2F2;}
	.st36{fill:none;stroke:#004EA1;stroke-linecap:round;stroke-linejoin:round;stroke-miterlimit:10;}
	.st37{fill:#FCDE63;}
	.st38{fill:url(#SVGID_15_);}
	.st39{fill:url(#SVGID_16_);}
	.st40{fill:url(#SVGID_17_);}
	.st41{fill:url(#SVGID_18_);}
	.st42{fill:url(#SVGID_19_);}
</style>
<g id="p2">
	<g>
		<path class="st1" d="M84.2,10.2l-11.3,0c0.7-1.6,2.4-4.4,5.7-4.8c0,0-8.5-3.4-11.2,2.3c0,0-0.7-5.4,2.7-5.8c0,0-9.2-2.2-11.4,7.3
			c0,0-2.4-4.3,0.9-6c0,0-6.1,0.6-8.3,6.9L36.8,10c-9.4,0-17,7.5-17,16.9l-0.1,34c0,9.4,7.5,17,16.9,17L84,78.1
			c9.4,0,17-7.5,17-16.9l0.1-34C101.2,17.8,93.6,10.2,84.2,10.2z"/>
		<g>
			<path class="st3" d="M70.2,6.1c-3.5,0.5-2.7,5.8-2.7,5.8c1.3-2.8,4-3.4,6.4-3.3c0.9-1.4,2.5-3,4.9-3.2c0,0-6.4-2.6-9.9,0.5
				C69.6,5.9,70.2,6.1,70.2,6.1z"/>
			<path class="st3" d="M72.9,14.3l11.3,0c9.2,0,16.6,7.4,16.9,16.5l0-3.6c0-9.4-7.5-17-16.9-17l-7.7,0
				C74.6,11.1,73.5,13.1,72.9,14.3z"/>
			<path class="st3" d="M19.8,31.1c0-9.4,7.7-17,17-16.9l14.6,0.1c1.5-4.3,4.9-6,6.8-6.6c-0.4-1.4-0.6-3.5,1.5-4.5
				c0,0-6.1,0.6-8.3,6.9L36.8,10c-9.4,0-17,7.5-17,16.9l-0.1,34c0,0.2,0,0.4,0,0.6L19.8,31.1z"/>
			<path class="st3" d="M59.7,7.3c-0.2,0.1-0.3,0.2-0.4,0.3c-0.2,0.5-0.3,1-0.4,1.5c0,0-0.2-0.3-0.3-0.7c-1.3,2,0.3,4.9,0.3,4.9
				c1.4-6.1,5.7-7.4,8.6-7.5c0.1-1.6,0.7-3.7,2.8-4c0,0-8-1.9-10.8,5.5C59.5,7.3,59.7,7.3,59.7,7.3z"/>
		</g>
		<path class="st4" d="M101.1,53.8c0,9.4-7.7,17-17,16.9l-47.4-0.2c-9.1,0-16.5-7.2-16.9-16.1l0,6.4c0,9.4,7.5,17,16.9,17L84,78.1
			c9.4,0,17-7.5,17-16.9l0.1-34c0-0.3,0-0.6,0-0.9L101.1,53.8z"/>
		<path class="st7" d="M66.9,62.5c0,5-4,9-9,9H28.7c-5,0-9-4-9-9v-31h37.2c5.5,0,10,4.5,10,10V62.5z"/>
		<path class="st8" d="M66.4,63c0,5-3.9,9-8.8,9h-29c-4.8,0-9-4-9-9v-31h38c4.8,0,8.8,4,8.8,9V63z"/>
		<path class="st9" d="M57.4,30.3H19.8l-0.1,5h37.8c5,0,9,4,9,9v-5C66.4,34.3,62.4,30.3,57.4,30.3z"/>
		<g>
			<line class="st10" x1="49.7" y1="55.6" x2="50.6" y2="58.9"/>
			<line class="st10" x1="46.3" y1="55.6" x2="47.2" y2="59"/>
		</g>
		<g>
			<path class="st11" d="M72.2,57.7c2.6,2.1,5.9,3.4,9.5,3.4c8.3,0,15.1-6.8,15.1-15.1c0-8.3-6.8-15.1-15.1-15.1
				c-3.6,0-6.9,1.3-9.5,3.4"/>
			<g>
				<path class="st11" d="M77.7,42.2c2.6-2.6,6.8-2.6,9.4,0c2.6,2.6,2.6,6.8,0,9.4"/>
				<path class="st11" d="M81.5,48.7c-1.6-1.6-1.6-4.3,0-5.9c1.6-1.6,4.3-1.6,5.9,0"/>
			</g>
		</g>
		<path class="st1" d="M68.7,122.6c15.4-1.9,13-18.8,12-22.5c-1-3.7-4.5-21.6-4.5-21.6h-28c0,0-8.4,15.6-6,30.2
			c2.4,14.6,13.8,17.1,20.1,15.8"/>
		<path class="st12" d="M43.4,90.6c-1.4,5.3-2.3,11.7-1.3,17.8c0.6,3.7,1.8,6.6,3.3,8.9c4.2-2.7,6.9-7.4,6.9-12.8
			C52.4,98.3,48.7,93,43.4,90.6z"/>
		<path class="st13" d="M42.9,95.1c-0.9,3.5-1.5,7.8-0.9,11.8c0.4,2.5,1.2,4.4,2.2,6c2.8-1.8,4.6-5,4.6-8.5
			C48.8,100.2,46.4,96.7,42.9,95.1z"/>
		<polyline class="st1" points="52,123 55,137 54,138.4 70.6,137.7 77.6,118.2 		"/>
		<path class="st1" d="M107,73.3c-3.3,0-6.2,1.3-8.6,3.2c-11.7,9.3-3,23.8-17,29.6l-1,7.2c20-9.2,10.9-21.7,21.7-32.3
			c1.3-1.1,3.1-1.8,5-1.8c4.2,0,7.6,3.4,7.6,7.6c0,2.3-1,4.3-2.6,5.7c-0.1,0.1-0.2,0.2-0.3,0.2c-0.5,0.5-0.9,1.3-0.9,2.1
			c0,1.6,1.3,2.9,2.9,2.9c0.5,0,1-0.1,1.5-0.4c0.3-0.2,0.5-0.4,0.8-0.7c2.6-2.4,4.3-5.9,4.3-9.8C120.3,79.3,114.4,73.3,107,73.3z"/>
		<g>
			<path class="st3" d="M81.4,109c14-5.7,5.3-20.2,17-29.6c2.4-1.9,5.3-3.2,8.6-3.2c6.9,0,12.5,5.2,13.2,11.9c0.1-0.5,0.1-1,0.1-1.5
				c0-7.4-6-13.3-13.3-13.3c-3.3,0-6.2,1.3-8.6,3.2c-11.7,9.3-3,23.8-17,29.6l-1,7.2c0.1-0.1,0.3-0.1,0.4-0.2L81.4,109z"/>
			<path class="st3" d="M112,95.3c1.6-1.4,2.6-3.4,2.6-5.7c0-0.5-0.1-1-0.1-1.5c-0.3,1.7-1.2,3.1-2.4,4.2c-0.1,0.1-0.2,0.2-0.3,0.2
				c-0.5,0.5-0.9,1.3-0.9,2.1c0,0.5,0.1,1,0.4,1.5c0.1-0.2,0.3-0.4,0.5-0.6C111.9,95.4,111.9,95.3,112,95.3z"/>
		</g>
		<path class="st4" d="M48,78.2l28.5,0.5l1,5.1c0,0-8.5,1.1-16.4,0.9c-7.9-0.2-15.6-1-15.6-1l2.6-5.7"/>
		<path class="st2" d="M52.5,123.7c0,0,5,1.5,10,0.5c0,0-2.5,6-9,5L52.5,123.7z"/>
		<path class="st2" d="M69,122.7c0,0,2.5,2,7.5-1c0.6-0.3,0-1.6,0-1.6S72.5,122.5,69,122.7z"/>
		<path class="st3" d="M77.5,86.1c0,0,5.5,33-7.3,36c0,0,8.8-0.2,10.9-11.7C83.1,99,77.5,86.1,77.5,86.1z"/>
		<g>
			<defs>
				<path id="SVGID_1_" d="M43.4,90.6c-1.4,5.3-2.3,11.7-1.3,17.8c0.6,3.7,1.8,6.6,3.3,8.9c4.2-2.7,6.9-7.4,6.9-12.8
					C52.4,98.3,48.7,93,43.4,90.6z"/>
			</defs>
			<clipPath id="SVGID_2_">
				<use xlink:href="#SVGID_1_"  style="overflow:visible;"/>
			</clipPath>
			<g class="st14">
				<linearGradient id="SVGID_3_" gradientUnits="userSpaceOnUse" x1="32.4529" y1="99.4067" x2="39.5324" y2="111.5008">
					<stop  offset="0" style="stop-color:#0068B6"/>
					<stop  offset="0.5054" style="stop-color:#004EA1"/>
					<stop  offset="1" style="stop-color:#004179"/>
				</linearGradient>
				<path class="st15" d="M37.2,107.5h4.7v-4.6h-4.8v-5h-0.4c-1.6,0-4.3,0.5-4.3,3.7c0,0.6,0,1.1,0,1.1v4.8v4.4c0,0,0,0.4,0.4,0.4
					c0.4,0,4,0,4.3,0V107.5z"/>
				<linearGradient id="SVGID_4_" gradientUnits="userSpaceOnUse" x1="39.6731" y1="97.7043" x2="48.3269" y2="111.0784">
					<stop  offset="0" style="stop-color:#7DCCF3"/>
					<stop  offset="0.5" style="stop-color:#2CA6E0"/>
					<stop  offset="1" style="stop-color:#0068B6"/>
				</linearGradient>
				<path class="st16" d="M46.4,97.9h-4.4h-4.6v4.6h4.8v9.8c0.1,0,0.2,0,0.4,0v0c1.1,0,4.3-0.4,4.3-3.5v-1.3v-4.8c0,0,0-3.9,0-4.4
					C46.9,97.9,46.4,97.9,46.4,97.9z"/>
				<g>
					<linearGradient id="SVGID_5_" gradientUnits="userSpaceOnUse" x1="39.957" y1="105.6024" x2="42.7541" y2="108.5393">
						<stop  offset="0" style="stop-color:#B4B4B5"/>
						<stop  offset="0.9946" style="stop-color:#B4B4B5;stop-opacity:0"/>
					</linearGradient>
					<polygon class="st17" points="41.9,102.9 41.9,102.9 37.3,107.5 41.9,107.5 					"/>
					<linearGradient id="SVGID_6_" gradientUnits="userSpaceOnUse" x1="35.2906" y1="110.2903" x2="38.2048" y2="113.3503">
						<stop  offset="0" style="stop-color:#B4B4B5"/>
						<stop  offset="0.9946" style="stop-color:#B4B4B5;stop-opacity:0"/>
					</linearGradient>
					<path class="st18" d="M37.2,107.6l-4.7,4.7c0.1,0.1,0.2,0.1,0.3,0.1c0.4,0,4,0,4.3,0V107.6z"/>
				</g>
				<linearGradient id="SVGID_7_" gradientUnits="userSpaceOnUse" x1="42.6311" y1="103.212" x2="46.1685" y2="106.9262">
					<stop  offset="0" style="stop-color:#B4B4B5"/>
					<stop  offset="0.9946" style="stop-color:#B4B4B5;stop-opacity:0"/>
				</linearGradient>
				<path class="st19" d="M46.7,98l-4.5,4.5h0v9.8c0.1,0,0.2,0,0.4,0v0c1.1,0,4.3-0.4,4.3-3.5v-1.3v-4.8c0,0,0-3.9,0-4.4
					C46.9,98.2,46.8,98.1,46.7,98z"/>
			</g>
		</g>
		<path class="st2" d="M43.4,95.6c4.6,2.1,7.9,6.3,8.8,11.4c0.1-0.8,0.2-1.6,0.2-2.5c0-6.2-3.7-11.5-9-13.9c-1.2,4.4-2,9.6-1.6,14.7
			C42,101.9,42.7,98.6,43.4,95.6z"/>
		<g class="st20">
			<path class="st21" d="M42.5,95.1l10.1,10.1c0,0-0.3,3.6-1.1,4.9l-9.6-9.6C41.9,100.5,41.7,96.7,42.5,95.1z"/>
			<path class="st21" d="M41.8,105.1l8,8c0,0-1.3,1.8-1.8,2.3l-6.2-6.2L41.8,105.1z"/>
		</g>
		<path class="st22" d="M45.3,84.7c0,0-10.7,26.2,4.9,37.3C50.2,122,41.7,112.3,45.3,84.7z"/>
		<path class="st2" d="M72.2,57.8c0,0,10.9,8.8,21.6-2.5c0,0-3,9.3-12,9.3C72.7,64.6,72.2,57.8,72.2,57.8z"/>
		<path class="st2" d="M88,43.5c0,0-1.7-2.9-4.7-1.8c-2.9,1.1-4.4,4.4-1.8,7c0,0-0.2-4.1,2.9-4.1c3.1,0,3.9,3.2,3.9,3.2
			S89.3,46.9,88,43.5z"/>
		<path class="st23" d="M72.2,34.2c0,0,3.6-3.8,11.7-2.8c8.2,1,14.3,9.1,12.6,17.4c0,0-0.9-8.5-9.4-13.4
			C81.5,32.3,76.7,33.7,72.2,34.2z"/>
		<g>
			<defs>
				<path id="SVGID_8_" d="M68.6,67.3c0,5.9-4,9.4-9,9.4l-26.3-0.2C23.2,76.2,20.3,65.8,20.3,60V31h39.3c5,0,9,4.7,9,10.6V67.3z"/>
			</defs>
			<clipPath id="SVGID_9_">
				<use xlink:href="#SVGID_8_"  style="overflow:visible;"/>
			</clipPath>
			<g class="st24">
				<path class="st25" d="M28.8,58.9c0.5,1.4,0.7,3,0.7,4.8c0,5.4-2.6,9.8-5.8,9.8c-3.2,0-5.8-4.4-5.8-9.8c0-1.7-0.4-4.4,0-5.8
					c0,0,1.4-0.6,2.5-2.5C20.5,55.3,22.6,59,28.8,58.9z"/>
				<path class="st26" d="M10.9,68c0,0,3.8-4.1,8.8-1.2c0,0,3.7-3.5,8.9,0.9c0,0-2.5,5.9-8.9,5.7C13.5,73.3,10.9,68,10.9,68z"/>
				<g>
					<path class="st5" d="M35.7,54.3c0,2.5-3.4,4.6-7.6,4.6s-7.7-2-7.7-4.6c0,2.5-3.5,4.6-7.7,4.6S5,56.9,5,54.3"/>
				</g>
			</g>
			<path class="st27" d="M18.3,59c-0.5,1.4-0.8,3-0.8,4.8c0,5.4,2.7,9.8,6,9.8c3.3,0,6-4.4,6-9.8c0-1.7-0.3-3.3-0.8-4.8"/>
		</g>
		<path class="st5" d="M84.2,10.2l-11.5,0c0.6-1.4,2.2-4.7,5.9-5c0,0-8.5-3.3-11.2,2.5c0,0-0.7-5.3,2.7-5.8c0,0-9.2-2.2-11.4,7.3
			c0,0-2.4-4.5,0.9-6.2c0,0-6.1,1.1-8.3,7.2L36.8,10c-9.4,0-17,7.5-17,16.9l-0.1,34c0,9.4,7.5,17,16.9,17L84,78.1
			c9.4,0,17-7.5,17-16.9l0.1-34C101.2,17.8,93.6,10.2,84.2,10.2z"/>
		<g>
			<path class="st5" d="M72.2,57.7c2.6,2.1,5.9,3.4,9.5,3.4c8.3,0,15.1-6.8,15.1-15.1c0-8.3-6.8-15.1-15.1-15.1
				c-3.6,0-6.9,1.3-9.5,3.4"/>
			<g>
				<path class="st5" d="M77.7,42.2c2.6-2.6,6.8-2.6,9.4,0c2.6,2.6,2.6,6.8,0,9.4"/>
				<path class="st5" d="M81.5,48.7c-1.6-1.6-1.6-4.3,0-5.9c1.6-1.6,4.3-1.6,5.9,0"/>
			</g>
		</g>
		<path class="st2" d="M41.9,101.6c0,0-0.7,4.9,3.1,5.2c3.9,0.3,12-4.5,17.2-17.6c0,0-7.7,12.6-15.6,12.9L41.9,101.6z"/>
		<path class="st28" d="M68.7,122.6c15.4-1.9,13-18.8,12-22.5c-1-3.7-4.5-21.6-4.5-21.6h-28c0,0-8.4,15.6-6,30.2
			c2.4,14.6,13.8,17.1,20.1,15.8"/>
		<path class="st5" d="M43.4,90.6c-1.4,5.3-2.3,11.7-1.3,17.8c0.6,3.7,1.8,6.6,3.3,8.9c4.2-2.7,6.9-7.4,6.9-12.8
			C52.4,98.3,48.7,93,43.4,90.6z"/>
		<polyline class="st5" points="52,123 55,137 54,138.4 70.6,137.7 77.6,118.2 		"/>
		<path class="st0" d="M39.1,91.2c-1.4,9.2,6.1,13.9,13.2,8.9c7.1-4.9,10.1-11.3,10.1-11.3"/>
		<path class="st5" d="M107,73.3c-3.3,0-6.2,1.3-8.6,3.2c-11.7,9.3-3,23.8-17,29.6l-1,7.2c20-9.2,10.9-21.7,21.7-32.3
			c1.3-1.1,3.1-1.8,5-1.8c4.2,0,7.6,3.4,7.6,7.6c0,2.3-1,4.3-2.6,5.7c-0.1,0.1-0.2,0.2-0.3,0.2c-0.5,0.5-0.9,1.3-0.9,2.1
			c0,1.6,1.3,2.9,2.9,2.9c0.5,0,1-0.1,1.5-0.4c0.3-0.2,0.5-0.4,0.8-0.7c2.6-2.4,4.3-5.9,4.3-9.8C120.3,79.3,114.4,73.3,107,73.3z"/>
		
			<ellipse transform="matrix(0.215 -0.9766 0.9766 0.215 -50.8619 102.3608)" class="st0" cx="38.2" cy="82.8" rx="10.3" ry="10.3"/>
		<g>
			<circle class="c2" cx="41.7" cy="46.3" r="6.8"/>
			<g>
				<path class="c5" d="M36.3,44.4c0,1.9,1.5,3.5,3.5,3.5
					s3.5-1.5,3.5-3.5c0-1.9-1.5-3.5-3.5-3.5S36.3,42.5,36.3,44.4z"/>
				<path class="c5" d="M41.9,49.7c0,1.3,1.1,2.3,2.3,2.3
					c1.3,0,2.3-1.1,2.3-2.3c0-1.3-1.1-2.3-2.3-2.3C43,47.3,41.9,48.4,41.9,49.7z"/>
				<path class="c5" d="M37.8,49.5c0,0.7,0.6,1.3,1.3,1.3
					c0.7,0,1.3-0.6,1.3-1.3s-0.6-1.3-1.3-1.3C38.4,48.2,37.8,48.8,37.8,49.5z"/>
				<circle class="c5" cx="45.9" cy="46" r="1.3"/>
			</g>
		</g>
	</g>
</g>
</svg>
