<?xml version="1.0" encoding="utf-8"?>
<!-- Generator: Adobe Illustrator 22.0.1, SVG Export Plug-In . SVG Version: 6.00 Build 0)  -->
<svg version="1.1" xmlns="http://www.w3.org/2000/svg" xmlns:xlink="http://www.w3.org/1999/xlink" x="0px" y="0px"
	 viewBox="0 0 140 130" style="enable-background:new 0 0 140 130;" xml:space="preserve">
<style type="text/css">
	.c3{fill:#CCCCCC;}
	.st0{fill:#EF7D9B;stroke:#B4195A;stroke-width:1.5;stroke-linecap:round;stroke-linejoin:round;stroke-miterlimit:10;}
	.st1{fill:none;stroke:#B4195A;stroke-width:1.5;stroke-linecap:round;stroke-linejoin:round;stroke-miterlimit:10;}
	.st2{fill:#EF7D9B;}
	.st3{opacity:0.6;fill:#CCCCCC;}
	.st4{fill:#FCDE63;stroke:#B4195A;stroke-miterlimit:10;}
	.st5{opacity:0.4;fill:#FFFFFF;}
	.st6{fill:#CCCCCC;}
	.st7{fill:url(#SVGID_1_);}
	.st8{fill:url(#SVGID_2_);}
	.st9{fill:url(#SVGID_3_);}
	.st10{fill:url(#SVGID_4_);}
	.st11{fill:url(#SVGID_5_);}
	.st12{opacity:0.3;fill:#F2F2F2;}
	.st13{fill:none;stroke:#B4195A;stroke-linecap:round;stroke-linejoin:round;stroke-miterlimit:10;}
	.st14{opacity:0.3;fill:#FFFFFF;}
	.st15{fill:#FCDE63;}
	.st16{fill:#E6E6E6;}
	.st17{fill:#FCE97A;}
	.st18{clip-path:url(#SVGID_7_);}
	.st19{fill:url(#SVGID_8_);}
	.st20{fill:#FFFFFF;}
	.st21{fill:url(#SVGID_9_);}
	.st22{fill:none;stroke:#B4195A;stroke-miterlimit:10;}
	.st23{display:none;fill:#333333;}
	.st24{display:none;}
	.st25{display:inline;fill:#FFFFFF;}
	.st26{display:inline;fill:#333333;}
	.st27{display:inline;}
	.st28{fill:#333333;}
	.st29{fill:#FCE97A;stroke:#B4195A;stroke-width:1.5;stroke-linecap:round;stroke-linejoin:round;stroke-miterlimit:10;}
	.st30{opacity:0.5;fill:#CCCCCC;}
	.st31{fill:url(#SVGID_10_);}
	.st32{fill:url(#SVGID_11_);}
	.st33{fill:url(#SVGID_12_);}
	.st34{fill:url(#SVGID_13_);}
	.st35{fill:url(#SVGID_14_);}
	.st36{fill:none;stroke:#333333;stroke-width:1.5;stroke-linecap:round;stroke-linejoin:round;stroke-miterlimit:10;}
	.st37{fill:#FFFFFF;stroke:#B4195A;stroke-linecap:round;stroke-linejoin:round;stroke-miterlimit:10;}
	.st38{clip-path:url(#SVGID_16_);}
	.st39{fill:url(#SVGID_17_);}
	.st40{fill:url(#SVGID_18_);}
	.st41{display:inline;fill:#FCE97A;stroke:#B4195A;stroke-linecap:round;stroke-linejoin:round;stroke-miterlimit:10;}
	.st42{clip-path:url(#SVGID_20_);}
	.st43{fill:url(#SVGID_21_);}
	.st44{fill:url(#SVGID_22_);}
	.st45{fill:#E54C4C;}
	.st46{fill:#F45B5B;}
	.st47{fill:url(#SVGID_23_);}
	.st48{fill:url(#SVGID_24_);}
	.st49{fill:url(#SVGID_25_);}
	.st50{fill:url(#SVGID_26_);}
	.st51{fill:url(#SVGID_27_);}
	.st52{fill:url(#SVGID_28_);}
	.st53{fill:url(#SVGID_29_);}
	.st54{fill:url(#SVGID_30_);}
	.st55{fill:url(#SVGID_31_);}
	.st56{fill:url(#SVGID_32_);}
	.st57{fill:url(#SVGID_33_);}
	.st58{fill:#FFD939;stroke:#333333;stroke-width:1.5;stroke-linecap:round;stroke-linejoin:round;stroke-miterlimit:10;}
	.st59{clip-path:url(#SVGID_35_);}
	.st60{fill:url(#SVGID_36_);}
	.st61{fill:url(#SVGID_37_);}
	.st62{fill:url(#SVGID_38_);}
	.st63{fill:url(#SVGID_39_);}
	.st64{fill:url(#SVGID_40_);}
	.st65{opacity:0.4;}
	.st66{opacity:0.7;fill:#FFFFFF;}
	.st67{clip-path:url(#SVGID_42_);}
	.st68{fill:url(#SVGID_43_);}
	.st69{fill:none;stroke:#333333;stroke-linecap:round;stroke-linejoin:round;stroke-miterlimit:10;}
	.st70{opacity:0.4;fill:#CCCCCC;}
	.st71{clip-path:url(#SVGID_45_);}
	
		.st72{clip-path:url(#SVGID_45_);fill:none;stroke:#B4195A;stroke-width:1.5;stroke-linecap:round;stroke-linejoin:round;stroke-miterlimit:10;}
</style>
<g id="p2">
	<g>
		<g>
			<g>
				<g>
					<path class="st0" d="M67.9,81.2c0,5.1-4.1,9.2-9.2,9.2c-5.1,0-9.2-4.1-9.2-9.2c0-5.1,4.1-9.2,9.2-9.2
						C63.7,71.9,67.9,76.1,67.9,81.2z"/>
					
						<ellipse transform="matrix(0.2309 -0.973 0.973 0.2309 -15.8274 142.3668)" class="st0" cx="82.1" cy="81.2" rx="9.2" ry="9.2"/>
				</g>
				<path class="st0" d="M80.3,90.4c0,0,2.9,7.9,5.9,8.1c2.9,0.2,9-1.6,4.1-13.1C85.5,73.9,80.3,90.4,80.3,90.4z"/>
				<path class="st0" d="M59.7,90.4c0,0-2.9,7.9-5.9,8.1c-2.9,0.2-9-1.6-4.1-13.1C54.5,73.9,59.7,90.4,59.7,90.4z"/>
			</g>
			<path class="st2" d="M63,127.4c0-4.7,3.1-8.4,7-8.4c3.9,0,7,3.8,7,8.4l14,0c0-26.7-6.1-48.8-6.1-48.8H55.1c0,0-6.1,22.3-6.1,48.8
				L63,127.4z"/>
			<path class="st3" d="M77,123.4c0-4.7-3.1-8.4-7-8.4c-3.9,0-7,3.8-7,8.4l-14,0c0,1.3-0.1,2.7-0.1,4l14,0c0-4.7,3.1-8.4,7-8.4
				c3.9,0,7,3.8,7,8.4l14,0c0-1.4,0-2.7-0.1-4L77,123.4z"/>
			<path class="st3" d="M53.2,86.4c0,0,16.6-5.1,33.4-0.4c0,0-0.2-5-2.3-7.1l-29.2,0C55.1,78.7,53.5,83.1,53.2,86.4z"/>
			<path class="st1" d="M82.2,78.2L55,78.1c0,0-6.1,22.4-6.1,49l14,0.3c0-4.7,3.1-8.4,7-8.4c3.9,0,7,3.8,7,8.4l14-0.2
				c0-20.5-3.8-38.5-5.5-45.7"/>
		</g>
		<ellipse transform="matrix(0.2283 -0.9736 0.9736 0.2283 -30.0655 49.4258)" class="st2" cx="16.1" cy="43.7" rx="15" ry="15"/>
		<path class="c3" d="M16.1,53.7c-7.4,0-13.6-5.4-14.8-12.5
			c-0.1,0.8-0.2,1.6-0.2,2.5c0,8.3,6.7,15,15,15c8.3,0,15-6.7,15-15c0-0.8-0.1-1.7-0.2-2.5C29.8,48.3,23.6,53.7,16.1,53.7z"/>
		<path class="st14" d="M16.1,33.6c7.4,0,13.6,5.4,14.8,12.5c0.1-0.8,0.2-1.6,0.2-2.5c0-8.3-6.7-15-15-15c-8.3,0-15,6.7-15,15
			c0,0.8,0.1,1.7,0.2,2.5C2.5,39,8.7,33.6,16.1,33.6z"/>
		<ellipse transform="matrix(0.7071 -0.7071 0.7071 0.7071 5.3912 100.3718)" class="st2" cx="123.9" cy="43.7" rx="15" ry="15"/>
		<path class="c3" d="M123.9,53.7c-7.4,0-13.6-5.4-14.8-12.5
			c-0.1,0.8-0.2,1.6-0.2,2.5c0,8.3,6.7,15,15,15c8.3,0,15-6.7,15-15c0-0.8-0.1-1.7-0.2-2.5C137.5,48.3,131.3,53.7,123.9,53.7z"/>
		<path class="st14" d="M123.9,33.6c7.4,0,13.6,5.4,14.8,12.5c0.1-0.8,0.2-1.6,0.2-2.5c0-8.3-6.7-15-15-15c-8.3,0-15,6.7-15,15
			c0,0.8,0.1,1.7,0.2,2.5C110.2,39,116.4,33.6,123.9,33.6z"/>
		<path class="st2" d="M98.7,11.1l-21.2-0.1c0.6-1.4,2.2-4.2,5.7-4.6c0,0-8.4-3.6-11.2,2.7c0,0-0.7-5.8,2.7-6.3c0,0-9.2-2.4-11.3,8
			c0,0-2.4-4.9,0.9-6.9c0,0-5.9,0-7.9,7l-14.8,0c-9.3,0-16.9,7.5-16.9,16.8l-0.1,33.8c0,9.3,7.5,16.9,16.8,16.9l57.1,0.2
			c9.3,0,16.9-7.5,16.9-16.8l0.1-33.8C115.5,18.8,108,11.2,98.7,11.1z"/>
		<path class="st3" d="M115.4,52.9c0,9.3-7.6,16.9-16.9,16.8l-57.1-0.2c-9,0-16.3-7.1-16.8-16l0,8c0,9.3,7.5,16.9,16.8,16.9
			l57.1,0.2c9.3,0,16.9-7.5,16.9-16.8l0.1-33.8c0-0.3,0-0.7,0-1L115.4,52.9z"/>
		<g>
			<path class="st14" d="M83.2,11.4c-3.5,0.4-5.1,3.2-5.7,4.6l21.2,0.1c9.1,0,16.5,7.3,16.8,16.3l0-4.3c0-9.3-7.5-16.9-16.8-16.9
				l-16.4-0.1C82.8,11.3,83.2,11.4,83.2,11.4z"/>
			<path class="st14" d="M73,7.6c1.1,0,1.8,0.2,1.8,0.2c-3.5,0.5-2.7,6.3-2.7,6.3c1.2-2.8,3.6-3.7,5.8-3.7c0.8-1.5,2.4-3.6,5.4-3.9
				C83.2,6.4,76.3,3.5,73,7.6z"/>
			<path class="st14" d="M24.6,32.7c0-9.3,7.6-16.9,16.9-16.8l14.8,0c1.4-4.8,4.6-6.3,6.5-6.8c-0.4-1.6-0.6-4,1.4-5.2
				c0,0-5.9,0-7.9,7l-14.8,0c-9.3,0-16.9,7.5-16.9,16.8l-0.1,33.8c0,0.2,0,0.4,0,0.7L24.6,32.7z"/>
			<path class="st14" d="M64.3,8.9C64.1,9,64,9.2,63.8,9.3c-0.2,0.5-0.3,1-0.4,1.6c0,0-0.1-0.3-0.3-0.7c-1.4,2.3,0.3,5.7,0.3,5.7
				c1.4-6.7,5.6-8.1,8.5-8.2c0-1.8,0.5-4.4,2.8-4.7c0,0-8-2.1-10.8,6.1C64.2,8.9,64.3,8.9,64.3,8.9z"/>
		</g>
		<path class="c3" d="M93.5,92.7c-0.2,0.2-0.4,0.3-0.6,0.5
			c-0.3,0.2-0.7,0.3-1.1,0.3c-0.8,0-1.6-0.5-1.9-1.2c-0.1,0.3-0.2,0.6-0.2,0.9c0,1.2,0.9,2.1,2.1,2.1c0.4,0,0.7-0.1,1.1-0.3
			c0.2-0.2,0.4-0.3,0.6-0.5c1.9-1.8,3.1-4.3,3.1-7.1c0-0.3,0-0.6,0-0.9C96.4,88.9,95.2,91.1,93.5,92.7z"/>
		<path class="st1" d="M103.9,77.7c6.8-2.2,11.4-8.4,11.4-15.9l0.1-33.8c0-9.3-7.5-16.9-16.8-16.9l-21.4-0.1
			c0.2-0.6,1.6-4.5,5.9-4.9c0,0-8.4-3.3-11.2,2.5c0,0-0.7-5.4,2.7-5.8c0,0-9.2-2.2-11.3,7.4c0,0-2.4-4.6,0.9-6.3c0,0-6.3,0-8.1,7.1
			l-14.6,0c-9.3,0-16.9,7.5-16.9,16.8l-0.1,33.8c0,9.3,7.5,16.9,16.8,16.9l44.1,0.1L103.9,77.7z"/>
		<path class="st1" d="M24.6,31.3c-2.4-1.7-5.3-2.6-8.5-2.6c-8.3,0-15,6.7-15,15c0,8.3,6.7,15,15,15c3.1,0,6-0.9,8.4-2.6L24.6,31.3z
			"/>
		<path class="st1" d="M123.9,28.7c-3.1,0-6,0.9-8.4,2.6l-0.1,24.8c2.4,1.7,5.3,2.6,8.5,2.6c8.3,0,15-6.7,15-15
			C138.9,35.4,132.1,28.7,123.9,28.7z"/>
		<g>
			<path class="st30" d="M76.1,101.2c1.3-1.9,6.3-7.1,10.2-7.8c3.9-0.7,6.4-0.4,7.3-0.2c0,0,0.3,2-0.6,3c0,0-2.7-0.9-6.7-0.3
				c-4.1,0.6-10.1,9.5-15.8,9.9C70.4,105.7,75.1,102.5,76.1,101.2z"/>
			<path class="c3" d="M67.4,106.6c0,0-0.3,2.2,1.1,2.2
				c1.4,0,2.4-2.8,2.4-2.8L67.4,106.6z"/>
			<path class="st2" d="M87.8,77.7c-2.4,0-4.5,1-6.3,2.3c-8.5,6.8-2.1,17.3-12.3,21.4c0,0-1.7,0.7-1.8,2.8c-0.1,2.7,1.1,2.4,1.1,2.4
				c14.5-6.7,7.9-15.7,15.7-23.4c1-0.8,2.2-1.3,3.6-1.3c3,0,5.5,2.5,5.5,5.5c0,1.6-0.7,3.1-1.9,4.1c-0.1,0.1-0.1,0.1-0.2,0.2
				c-0.4,0.4-0.6,0.9-0.6,1.5c0,1.2,0.9,2.1,2.1,2.1c0.4,0,0.7-0.1,1.1-0.3c0.2-0.2,0.4-0.3,0.6-0.5c1.9-1.8,3.1-4.3,3.1-7.1
				C97.5,82,93.2,77.7,87.8,77.7z"/>
			<g>
				<path class="st14" d="M69.3,103.5c10.2-4.2,3.8-14.7,12.3-21.4c1.8-1.4,3.9-2.3,6.3-2.3c5,0,9.1,3.8,9.6,8.6
					c0-0.3,0.1-0.7,0.1-1c0-5.3-4.3-9.7-9.7-9.7c-2.4,0-4.5,1-6.3,2.3c-8.5,6.8-2.1,17.3-12.3,21.4c0,0-1.7,0.7-1.8,2.8
					c0,0.7,0,1.1,0.1,1.5C67.9,104.1,69.3,103.5,69.3,103.5z"/>
				<path class="st14" d="M91.5,93.5c1.1-1,1.9-2.5,1.9-4.1c0-0.4,0-0.7-0.1-1c-0.2,1.2-0.9,2.3-1.8,3.1c-0.1,0.1-0.1,0.1-0.2,0.2
					c-0.4,0.4-0.6,0.9-0.6,1.5c0,0.4,0.1,0.7,0.3,1c0.1-0.2,0.2-0.3,0.3-0.5C91.3,93.6,91.4,93.6,91.5,93.5z"/>
			</g>
			<path class="c3" d="M93.2,86.4c0-0.3,0.1-0.6,0.1-0.9
				c0-3-2.5-5.5-5.5-5.5c-1.4,0-2.6,0.5-3.6,1.3c-7.8,7.7-1.2,16.7-15.7,23.4c0,0-0.8,0.2-1-1.1c0,0.2-0.1,0.3-0.1,0.5
				c-0.1,2.7,1.1,2.4,1.1,2.4c14.5-6.7,7.9-15.7,15.7-23.4c1-0.8,2.2-1.3,3.6-1.3C90.5,81.9,92.8,83.8,93.2,86.4z"/>
			<path class="st1" d="M87.8,77.7c-2.4,0-4.5,1-6.3,2.3c-8.5,6.8-2.1,17.3-12.3,21.4c0,0-1.7,0.7-1.8,2.8c-0.1,2.7,1.1,2.4,1.1,2.4
				c14.5-6.7,7.9-15.7,15.7-23.4c1-0.8,2.2-1.3,3.6-1.3c3,0,5.5,2.5,5.5,5.5c0,1.6-0.7,3.1-1.9,4.1c-0.1,0.1-0.1,0.1-0.2,0.2
				c-0.4,0.4-0.6,0.9-0.6,1.5c0,1.2,0.9,2.1,2.1,2.1c0.4,0,0.7-0.1,1.1-0.3c0.2-0.2,0.4-0.3,0.6-0.5c1.9-1.8,3.1-4.3,3.1-7.1
				C97.5,82,93.2,77.7,87.8,77.7z"/>
		</g>
	</g>
</g>
</svg>
