<?xml version="1.0" encoding="utf-8"?>
<!-- Generator: Adobe Illustrator 22.0.1, SVG Export Plug-In . SVG Version: 6.00 Build 0)  -->
<svg version="1.1" xmlns="http://www.w3.org/2000/svg" xmlns:xlink="http://www.w3.org/1999/xlink" x="0px" y="0px"
	 viewBox="0 0 140 130" style="enable-background:new 0 0 140 130;" xml:space="preserve">
<style type="text/css">
	.c4{fill:#FFFFFF;}
	.c6{fill:#333333;}
	.c5{fill:#FFFFFF;}
	.c2{fill:#333333;}
	.c7{opacity:0.4;fill:#FFFFFF;}
	.st0{fill:#EF7D9B;stroke:#B4195A;stroke-width:1.5;stroke-linecap:round;stroke-linejoin:round;stroke-miterlimit:10;}
	.st1{fill:none;stroke:#B4195A;stroke-width:1.5;stroke-linecap:round;stroke-linejoin:round;stroke-miterlimit:10;}
	.st2{fill:#EF7D9B;}
	.st3{opacity:0.6;fill:#CCCCCC;}
	.st4{fill:#FCDE63;stroke:#B4195A;stroke-miterlimit:10;}
	.st5{fill:#CCCCCC;}
	.st6{fill:url(#SVGID_1_);}
	.st7{fill:url(#SVGID_2_);}
	.st8{fill:url(#SVGID_3_);}
	.st9{fill:url(#SVGID_4_);}
	.st10{fill:url(#SVGID_5_);}
	.st11{opacity:0.3;fill:#F2F2F2;}
	.st12{fill:none;stroke:#B4195A;stroke-linecap:round;stroke-linejoin:round;stroke-miterlimit:10;}
	.st13{opacity:0.3;fill:#FFFFFF;}
	.st14{fill:#FCDE63;}
	.st15{fill:#E6E6E6;}
	.st16{fill:#FCE97A;}
	.st17{clip-path:url(#SVGID_7_);}
	.st18{fill:url(#SVGID_8_);}
	.st19{fill:#FFFFFF;}
	.st20{fill:url(#SVGID_9_);}
	.st21{fill:none;stroke:#B4195A;stroke-miterlimit:10;}
	.st22{display:none;fill:#333333;}
	.st23{display:none;}
	.st24{display:inline;fill:#FFFFFF;}
	.st25{display:inline;fill:#333333;}
	.st26{display:inline;}
	.st27{fill:#333333;}
	.st28{fill:#FCE97A;stroke:#B4195A;stroke-width:1.5;stroke-linecap:round;stroke-linejoin:round;stroke-miterlimit:10;}
	.st29{opacity:0.5;fill:#CCCCCC;}
	.st30{fill:url(#SVGID_10_);}
	.st31{fill:url(#SVGID_11_);}
	.st32{fill:url(#SVGID_12_);}
	.st33{fill:url(#SVGID_13_);}
	.st34{fill:url(#SVGID_14_);}
	.st35{fill:none;stroke:#333333;stroke-width:1.5;stroke-linecap:round;stroke-linejoin:round;stroke-miterlimit:10;}
	.st36{fill:#FFFFFF;stroke:#B4195A;stroke-linecap:round;stroke-linejoin:round;stroke-miterlimit:10;}
	.st37{clip-path:url(#SVGID_16_);}
	.st38{fill:url(#SVGID_17_);}
	.st39{fill:url(#SVGID_18_);}
	.st40{display:inline;fill:#FCE97A;stroke:#B4195A;stroke-linecap:round;stroke-linejoin:round;stroke-miterlimit:10;}
	.st41{clip-path:url(#SVGID_20_);}
	.st42{fill:url(#SVGID_21_);}
	.st43{fill:url(#SVGID_22_);}
	.st44{fill:#E54C4C;}
	.st45{fill:#F45B5B;}
	.st46{fill:url(#SVGID_23_);}
	.st47{fill:url(#SVGID_24_);}
	.st48{fill:url(#SVGID_25_);}
	.st49{fill:url(#SVGID_26_);}
	.st50{fill:url(#SVGID_27_);}
	.st51{fill:url(#SVGID_28_);}
	.st52{fill:url(#SVGID_29_);}
	.st53{fill:url(#SVGID_30_);}
	.st54{fill:url(#SVGID_31_);}
	.st55{fill:url(#SVGID_32_);}
	.st56{fill:url(#SVGID_33_);}
	.st57{fill:#FFD939;stroke:#333333;stroke-width:1.5;stroke-linecap:round;stroke-linejoin:round;stroke-miterlimit:10;}
	.st58{opacity:0.4;fill:#FFFFFF;}
	.st59{clip-path:url(#SVGID_35_);}
	.st60{fill:url(#SVGID_36_);}
	.st61{fill:url(#SVGID_37_);}
	.st62{fill:url(#SVGID_38_);}
	.st63{fill:url(#SVGID_39_);}
	.st64{fill:url(#SVGID_40_);}
	.st65{opacity:0.4;}
	.st66{opacity:0.7;fill:#FFFFFF;}
	.st67{clip-path:url(#SVGID_42_);}
	.st68{fill:url(#SVGID_43_);}
	.st69{fill:none;stroke:#333333;stroke-linecap:round;stroke-linejoin:round;stroke-miterlimit:10;}
	.st70{opacity:0.4;fill:#CCCCCC;}
	.st71{clip-path:url(#SVGID_45_);}
	
		.st72{clip-path:url(#SVGID_45_);fill:none;stroke:#B4195A;stroke-width:1.5;stroke-linecap:round;stroke-linejoin:round;stroke-miterlimit:10;}
</style>
<g id="p3">
	<g>
		<path class="st0" d="M83.4,101.6c0,0,4.9,3.5,7.7,0c2.8-3.5,0.7-13.7,7.3-16.3c6.7-2.6,12.6,1.7,10.1,9.7
			c-0.3,0.9-1.4,3.1-3.4,2.4c-2.1-0.8-1.7-2.9-1.1-4.2c0.6-1.2,1.2-4.8-3.5-4.1c-5.6,0.9-2.8,13.8-7.6,17c-3.9,2.6-8.7-0.7-8.7-0.7"
			/>
		<g>
			<polyline class="st0" points="75.3,123.4 77.3,124.6 77.7,126.3 82,119.8 80.5,116.6 			"/>
			<path class="st0" d="M69.5,111.9c0,0-4.9,6.8-3.7,13.5l-0.8,1.8l6.9-0.5c0,0,15.4-13.7,13.6-27.6c-2.1-16.1-4.2-22.7-4.2-22.7
				H53.1c0,0-2.2,11.3-2.2,25.4c0,7.6,5.2,12,7.7,13.9c3.1,2.4,7.3,4.5,7.3,4.5"/>
			<circle class="st4" cx="67.3" cy="94.7" r="11.7"/>
			<circle class="c7" cx="67.3" cy="94.7" r="8.7"/>
			<path class="st5" d="M67.3,85.3c6.1,0,11,4.6,11.6,10.5c0-0.4,0.1-0.8,0.1-1.1C79,88.2,73.8,83,67.3,83
				c-6.4,0-11.7,5.2-11.7,11.7c0,0.4,0,0.8,0.1,1.1C56.3,89.9,61.3,85.3,67.3,85.3z"/>
			<linearGradient id="SVGID_1_" gradientUnits="userSpaceOnUse" x1="60.5061" y1="90.0005" x2="66.4623" y2="100.1755">
				<stop  offset="0" style="stop-color:#0068B6"/>
				<stop  offset="0.5054" style="stop-color:#004EA1"/>
				<stop  offset="1" style="stop-color:#004179"/>
			</linearGradient>
			<path class="st6" d="M64.6,96.9h3.9V93h-3.9v-4.7h0.1c-1.4,0-4.1,1.1-4.1,3.9c0,0.5,0,0.9,0,0.9v4.1v3.8c0,0,0.4-0.1,0.8-0.1
				c0.3,0,3.2,0,3.2,0V96.9z"/>
			<linearGradient id="SVGID_2_" gradientUnits="userSpaceOnUse" x1="67.0653" y1="88.2061" x2="74.7182" y2="100.0333">
				<stop  offset="0" style="stop-color:#7DCCF3"/>
				<stop  offset="0.5" style="stop-color:#2CA6E0"/>
				<stop  offset="1" style="stop-color:#0068B6"/>
			</linearGradient>
			<path class="st7" d="M73,88.2h-3.8h-3.9V93h3.9v7.9c0,0,0.3,0,0.4,0l-0.1,0.2c1,0,3.6-0.1,3.6-2.8v-1.1V93c0,0,0-3.3,0-3.8
				C73.3,88.9,73,88.2,73,88.2z"/>
			<g>
				<linearGradient id="SVGID_3_" gradientUnits="userSpaceOnUse" x1="67.054" y1="95.2831" x2="69.3108" y2="97.6528">
					<stop  offset="0" style="stop-color:#B4B4B5"/>
					<stop  offset="0.9946" style="stop-color:#B4B4B5;stop-opacity:0"/>
				</linearGradient>
				<polygon class="st8" points="68.5,93.2 68.5,93.2 65.2,96.9 68.5,96.9 				"/>
				<linearGradient id="SVGID_4_" gradientUnits="userSpaceOnUse" x1="62.9888" y1="99.3688" x2="65.2262" y2="101.7181">
					<stop  offset="0" style="stop-color:#B4B4B5"/>
					<stop  offset="0.9946" style="stop-color:#B4B4B5;stop-opacity:0"/>
				</linearGradient>
				<path class="st9" d="M64.6,97.2l-3.7,3.8c0.1,0.1,0.4-0.1,0.6-0.1c0.3,0,3.2,0,3.2,0V97.2z"/>
			</g>
			<linearGradient id="SVGID_5_" gradientUnits="userSpaceOnUse" x1="69.7804" y1="93.3888" x2="72.7741" y2="96.5322">
				<stop  offset="0" style="stop-color:#B4B4B5"/>
				<stop  offset="0.9946" style="stop-color:#B4B4B5;stop-opacity:0"/>
			</linearGradient>
			<path class="st10" d="M73.2,89L69.5,93h-0.2v7.9c0,0,0.3,0,0.4,0l-0.1,0.2c1,0,3.6-0.1,3.6-2.8v-1.1V93c0,0,0-3.3,0-3.8
				C73.3,89.1,73.3,89.1,73.2,89z"/>
			<path class="st11" d="M78.9,93.2L68.8,83.1c-0.5-0.1-1-0.1-1.4-0.1c-3.3,0-6.3,1.4-8.4,3.6l16.5,16.5c2.2-2.1,3.6-5.1,3.6-8.4
				C79,94.2,79,93.7,78.9,93.2z"/>
			<path class="st11" d="M56.1,91.4l14.4,14.4c1.3-0.4,2.5-1,3.6-1.8L57.9,87.8C57.1,88.9,56.5,90.1,56.1,91.4z"/>
			<circle class="st12" cx="67.3" cy="94.7" r="11.7"/>
		</g>
		<path class="st0" d="M80.5,76.4c0,0,10.4,2.8,13.1,11.4c2.2,7.2-4.7,15.6-9,12c-2.5-2.1,1.9-7.6,2-8.7s-4-3.6-4-3.6"/>
		<g>
			<path class="st2" d="M98.8,11.8L83,11.8c-2-6.4-8-7.4-8-7.4c3.2,1.7,0.9,6.4,0.9,6.4c-2.1-9.5-11.4-7.3-11.4-7.3
				c3.5,0.5,2.7,5.7,2.7,5.7C64.5,3.4,56,6.6,56,6.6c4.6,0.5,6,4.8,6.1,5.1l-20.7-0.1c-9.4,0-17,7.5-17,16.9l-0.1,34
				c0,9.4,7.5,17,16.9,17l57.4,0.2c9.4,0,17-7.5,17-16.9l0.1-34C115.8,19.5,108.2,11.8,98.8,11.8z"/>
			<path class="st3" d="M115.6,55.8c0,9.4-7.7,17-17,16.9l-57.4-0.2c-9.2,0-16.7-7.4-16.9-16.6l0,6.5c0,9.4,7.5,17,16.9,17l57.4,0.2
				c9.4,0,17-7.5,17-16.9l0.1-34c0-0.2,0-0.3,0-0.5L115.6,55.8z"/>
			<g>
				<path class="st13" d="M75.9,10.6c1.8,0.6,5.6,2.3,7.1,7.2l15.8,0.1c9.2,0,16.7,7.4,16.9,16.6l0-5.6c0-9.4-7.5-17-16.9-17
					L83,11.8c-2-6.4-8-7.4-8-7.4C78,6,76.2,9.9,75.9,10.6z"/>
				<path class="st13" d="M24.4,34.5c0-9.4,7.7-17,17-16.9l20.7,0.1c-0.1-0.3-1.5-4.6-6.1-5.1c0,0,8.5-3.2,11.2,2.5
					c0,0,0.7-5.3-2.7-5.7c0,0,9.2-2.2,11.4,7.3c0,0,2.4-4.6-0.9-6.4c0,0,0.3,0.1,0.8,0.2c-2.2-9.3-11.3-7.2-11.3-7.2
					c3.5,0.5,2.7,5.7,2.7,5.7C64.5,3.4,56,6.6,56,6.6c4.6,0.5,6,4.8,6.1,5.1l-20.7-0.1c-9.4,0-17,7.5-17,16.9l-0.1,34
					c0,0.1,0,0.3,0,0.4L24.4,34.5z"/>
			</g>
			<path class="st14" d="M97.7,67.7H40.3c-4.9,0-8.8-3.9-8.8-8.8V36.5c0-4.9,3.9-8.8,8.8-8.8h57.4c4.9,0,8.8,3.9,8.8,8.8v22.4
				C106.5,63.7,102.6,67.7,97.7,67.7z"/>
			<path class="st15" d="M97.7,67.7H40.3c-4.9,0-8.8-3.9-8.8-8.8V36.5c0-4.9,3.9-8.8,8.8-8.8h57.4c4.9,0,8.8,3.9,8.8,8.8v22.4
				C106.5,63.7,102.6,67.7,97.7,67.7z"/>
			<path class="st16" d="M106.8,41.1c0-4.9-3.9-8.8-8.8-8.8H40.6c-4.9,0-8.8,3.9-8.8,8.8v17.4c0,4.9,3.9,8.8,8.8,8.8H98
				c4.9,0,8.8-3.9,8.8-8.8V41.1z"/>
			<path class="st21" d="M106.5,58.7c0,5-4,9-9,9h-57c-5,0-9-4-9-9v-22c0-5,4-9,9-9h57c5,0,9,4,9,9V58.7z"/>
			
				<ellipse transform="matrix(0.2283 -0.9736 0.9736 0.2283 52.4596 155.2689)" class="st2" cx="124.2" cy="44.5" rx="15.1" ry="15.1"/>
			
				<ellipse transform="matrix(0.7071 -0.7071 0.7071 0.7071 -26.861 24.2383)" class="st2" cx="15.8" cy="44.5" rx="15.1" ry="15.1"/>
			<g>
				<path class="st1" d="M118.1,38.7c3.3-3.3,8.8-3.3,12.1,0c3.3,3.3,3.3,8.8,0,12.1"/>
				<path class="st1" d="M123,47.2c-2.1-2.1-2.1-5.5,0-7.6c2.1-2.1,5.5-2.1,7.6,0"/>
			</g>
			<g>
				<path class="st1" d="M21.4,38.7c-3.3-3.3-8.8-3.3-12.1,0c-3.3,3.3-3.3,8.8,0,12.1"/>
				<path class="st1" d="M16.4,47.2c2.1-2.1,2.1-5.5,0-7.6c-2.1-2.1-5.5-2.1-7.6,0"/>
			</g>
			<g class="st23">
				<g class="st26">
					<path class="st2" d="M36.4,61.6c-0.1,0-0.2,0-0.3,0c-0.5-0.1-0.8-0.7-0.7-1.2l0.9-3.4c0.1-0.5,0.7-0.8,1.2-0.7
						c0.5,0.1,0.8,0.7,0.7,1.2l-0.9,3.4C37.2,61.3,36.8,61.6,36.4,61.6z"/>
				</g>
				<g class="st26">
					<path class="st2" d="M39.8,61.6c-0.1,0-0.2,0-0.3,0c-0.5-0.1-0.8-0.7-0.7-1.2l0.9-3.4c0.1-0.5,0.7-0.8,1.2-0.7
						c0.5,0.1,0.8,0.7,0.7,1.2l-0.9,3.4C40.6,61.3,40.2,61.6,39.8,61.6z"/>
				</g>
				<g class="st26">
					<path class="st2" d="M103.1,61.6c-0.4,0-0.8-0.3-1-0.7l-0.9-3.4c-0.1-0.5,0.2-1.1,0.7-1.2c0.5-0.1,1.1,0.2,1.2,0.7l0.9,3.4
						c0.1,0.5-0.2,1.1-0.7,1.2C103.3,61.6,103.2,61.6,103.1,61.6z"/>
				</g>
				<g class="st26">
					<path class="st2" d="M99.7,61.6c-0.4,0-0.8-0.3-1-0.7l-0.9-3.4c-0.1-0.5,0.2-1.1,0.7-1.2c0.5-0.1,1.1,0.2,1.2,0.7l0.9,3.4
						c0.1,0.5-0.2,1.1-0.7,1.2C99.9,61.6,99.8,61.6,99.7,61.6z"/>
				</g>
			</g>
			<g>
				<path class="st12" d="M118.1,38.7c3.3-3.3,8.8-3.3,12.1,0c3.3,3.3,3.3,8.8,0,12.1"/>
				<path class="st12" d="M123,47.2c-2.1-2.1-2.1-5.5,0-7.6c2.1-2.1,5.5-2.1,7.6,0"/>
			</g>
			<g>
				<path class="st12" d="M21.4,38.7c-3.3-3.3-8.8-3.3-12.1,0c-3.3,3.3-3.3,8.8,0,12.1"/>
				<path class="st12" d="M16.4,47.2c2.1-2.1,2.1-5.5,0-7.6c-2.1-2.1-5.5-2.1-7.6,0"/>
			</g>
			<path class="st1" d="M98.8,11.8L83,11.8c-2-6.4-8-7.4-8-7.4c3.2,1.7,0.9,6.4,0.9,6.4c-2.1-9.5-11.4-7.3-11.4-7.3
				c3.5,0.5,2.7,5.7,2.7,5.7C64.5,3.4,56,6.6,56,6.6c4.6,0.5,6,4.8,6.1,5.1l-20.7-0.1c-9.4,0-17,7.5-17,16.9l-0.1,34
				c0,9.4,7.5,17,16.9,17l57.4,0.2c9.4,0,17-7.5,17-16.9l0.1-34C115.8,19.5,108.2,11.8,98.8,11.8z"/>
			<path class="st1" d="M124.2,29.4c-3.1,0-6,1-8.4,2.6l-0.1,25c2.4,1.7,5.4,2.6,8.5,2.6c8.3,0,15.1-6.8,15.1-15.1
				C139.3,36.2,132.5,29.4,124.2,29.4z"/>
			<path class="st1" d="M24.4,32.1c-2.4-1.7-5.4-2.6-8.5-2.6c-8.3,0-15.1,6.8-15.1,15.1c0,8.3,6.8,15.1,15.1,15.1c3.1,0,6-1,8.4-2.6
				L24.4,32.1z"/>
			<circle class="st22" cx="44" cy="44.6" r="7.2"/>
			<g class="st23">
				<path class="st24" d="M50.2,42.6c0,2-1.6,3.6-3.6,3.6c-2,0-3.6-1.6-3.6-3.6c0-2,1.6-3.6,3.6-3.6C48.5,39,50.2,40.6,50.2,42.6z"
					/>
				<path class="st24" d="M44.2,48.2c0,1.4-1.1,2.5-2.5,2.5c-1.4,0-2.5-1.1-2.5-2.5c0-1.4,1.1-2.5,2.5-2.5
					C43.1,45.7,44.2,46.8,44.2,48.2z"/>
				<path class="st24" d="M48.5,48c0,0.7-0.6,1.3-1.3,1.3c-0.7,0-1.3-0.6-1.3-1.3c0-0.7,0.6-1.3,1.3-1.3
					C47.9,46.6,48.5,47.3,48.5,48z"/>
				<path class="st24" d="M41.3,44.3c0,0.7-0.6,1.3-1.3,1.3c-0.7,0-1.3-0.6-1.3-1.3c0-0.7,0.6-1.3,1.3-1.3
					C40.7,42.9,41.3,43.5,41.3,44.3z"/>
			</g>
			<g class="st23">
				<circle class="st25" cx="92.5" cy="44.6" r="7.2"/>
				<g class="st26">
					<path class="c5" d="M86.8,42.6c0,2,1.6,3.6,3.6,3.6
						c2,0,3.6-1.6,3.6-3.6c0-2-1.6-3.6-3.6-3.6C88.4,39,86.8,40.6,86.8,42.6z"/>
					<circle class="c5" cx="95.2" cy="48.2" r="2.5"/>
					<path class="c5" d="M88.4,48c0,0.7,0.6,1.3,1.3,1.3
						c0.7,0,1.3-0.6,1.3-1.3c0-0.7-0.6-1.3-1.3-1.3C89,46.6,88.4,47.3,88.4,48z"/>
					<path class="c5" d="M95.6,44.3c0,0.7,0.6,1.3,1.3,1.3
						c0.7,0,1.3-0.6,1.3-1.3c0-0.7-0.6-1.3-1.3-1.3C96.2,42.9,95.6,43.5,95.6,44.3z"/>
				</g>
			</g>
			<g>
				<g>
					<path class="st27" d="M100.8,38.1c0,0,0.3,2.7,0.3,6.5l-2.4-5.4C98.6,39.2,100.1,40.4,100.8,38.1z"/>
				</g>
				<circle class="c6" cx="93.9" cy="44.6" r="7.2"/>
				<g>
					<path class="c4" d="M87.7,42.6c0,2,1.6,3.6,3.6,3.6
						c2,0,3.6-1.6,3.6-3.6c0-2-1.6-3.6-3.6-3.6C89.3,39,87.7,40.6,87.7,42.6z"/>
					<path class="c4" d="M93.7,48.2c0,1.4,1.1,2.5,2.5,2.5
						s2.5-1.1,2.5-2.5c0-1.4-1.1-2.5-2.5-2.5S93.7,46.8,93.7,48.2z"/>
					<path class="c4" d="M89.4,48c0,0.7,0.6,1.3,1.3,1.3
						c0.7,0,1.3-0.6,1.3-1.3c0-0.7-0.6-1.3-1.3-1.3C90,46.6,89.4,47.3,89.4,48z"/>
					<path class="c4" d="M96.5,44.3c0,0.7,0.6,1.3,1.3,1.3
						c0.7,0,1.3-0.6,1.3-1.3c0-0.7-0.6-1.3-1.3-1.3C97.1,42.9,96.5,43.5,96.5,44.3z"/>
				</g>
			</g>
			<polyline class="st35" points="41.7,41.5 52.8,45.5 39.4,49.1 			"/>
			<path class="st36" d="M86.7,56.5c1.9,2.7-7.7,7.9-16.9,7.9c-9.2,0-18-4.8-16.6-7.8c1.9-4.2,7.4,2.1,16.6,2.1
				C79,58.7,83.3,51.7,86.7,56.5z"/>
			<g>
				<g>
					<line class="st12" x1="77" y1="58.8" x2="78.1" y2="61.6"/>
				</g>
				<path class="st12" d="M75,61c0,0,3.2-0.7,4.8-1.6"/>
			</g>
			<g>
				<g>
					<line class="st12" x1="70.4" y1="60.6" x2="70.6" y2="62.9"/>
				</g>
				<path class="st12" d="M68.4,61.9c0,0,2.6,0.1,4.1-0.2"/>
			</g>
			<g>
				<defs>
					<path id="SVGID_15_" d="M106.7,41.1c0-4.9-3.9-8.8-8.8-8.8H40.5c-4.9,0-8.8,3.9-8.8,8.8v17.4c0,4.9,3.9,8.8,8.8,8.8h57.4
						c4.9,0,8.8-3.9,8.8-8.8V41.1z"/>
				</defs>
				<clipPath id="SVGID_7_">
					<use xlink:href="#SVGID_15_"  style="overflow:visible;"/>
				</clipPath>
				<g class="st17">
					
						<radialGradient id="SVGID_8_" cx="40.2237" cy="61.9773" r="12.454" gradientTransform="matrix(1 0 0 0.9 0 6.1977)" gradientUnits="userSpaceOnUse">
						<stop  offset="0" style="stop-color:#EF7D9B;stop-opacity:0.6"/>
						<stop  offset="1" style="stop-color:#EF7D9B;stop-opacity:0"/>
					</radialGradient>
					<circle class="st18" cx="40.2" cy="62" r="13.4"/>
					<circle class="st19" cx="39.3" cy="52.8" r="0.7"/>
					<circle class="st19" cx="36.8" cy="55.2" r="1.2"/>
				</g>
				<g class="st17">
					
						<radialGradient id="SVGID_9_" cx="-190.9965" cy="61.9773" r="12.454" gradientTransform="matrix(-1 0 0 0.9 -93.44 6.1977)" gradientUnits="userSpaceOnUse">
						<stop  offset="0" style="stop-color:#EF7D9B;stop-opacity:0.6"/>
						<stop  offset="1" style="stop-color:#EF7D9B;stop-opacity:0"/>
					</radialGradient>
					<circle class="st20" cx="97.6" cy="62" r="13.4"/>
					<circle class="st19" cx="98.5" cy="52.8" r="0.7"/>
					<circle class="st19" cx="101" cy="55.2" r="1.2"/>
				</g>
			</g>
		</g>
		<g class="st23">
			<path class="st40" d="M102.4,27c0,0,1.4-6.1-1.9-8.8s-6.8,2.6-4.5,4.4c-2.2-1.8-6.9,2.5-3.5,5.3s9,0.2,9,0.2"/>
			<path class="st40" d="M105.4,29.5c0,0,5.7-2.5,9,0.2s-1.3,7.1-3.5,5.3c2.2,1.8-1.2,7.2-4.5,4.4s-1.9-8.8-1.9-8.8"/>
			<ellipse transform="matrix(0.6381 -0.77 0.77 0.6381 15.2621 90.0846)" class="st40" cx="103.5" cy="28.8" rx="6" ry="4.9"/>
		</g>
		<path class="st0" d="M56,76.2c0,0-0.5-9.1-3.9-9.1c-3.7,0-2.7,9.4-2.7,9.4s-4.1-8.3-7.7-5.6c-2.6,2,2.5,8.9,2.5,8.9s-2.9,4.9,2,8
			c5.7,3.6,17.5-3.3,12.3-10.2c-2-2.2-8.5-2.4-8.9,1.1c-0.4,3.6,8.1,3.2,8.1,3.2"/>
		<g>
			<path class="st28" d="M108.3,17.4c0,0,2.2-9.2-2.9-13.4c-5.1-4.2-10.2,3.9-6.9,6.7c-3.4-2.8-10.4,3.8-5.3,8
				c5.1,4.2,13.7,0.4,13.7,0.4"/>
			<path class="st28" d="M112.9,21.2c0,0,8.6-3.8,13.7,0.4c5.1,4.2-1.9,10.8-5.3,8c3.4,2.8-1.8,10.9-6.9,6.7
				c-5.1-4.2-2.9-13.4-2.9-13.4"/>
			<ellipse transform="matrix(0.6381 -0.77 0.77 0.6381 24.2822 91.9266)" class="st28" cx="109.9" cy="20.1" rx="9.1" ry="7.4"/>
		</g>
	</g>
</g>
</svg>
