<?xml version="1.0" encoding="utf-8"?>
<!-- Generator: Adobe Illustrator 22.0.1, SVG Export Plug-In . SVG Version: 6.00 Build 0)  -->
<svg version="1.1" xmlns="http://www.w3.org/2000/svg" xmlns:xlink="http://www.w3.org/1999/xlink" x="0px" y="0px"
	 viewBox="0 0 140 130" style="enable-background:new 0 0 140 130;" xml:space="preserve">
<style type="text/css">
	.c4{fill:#FFFFFF;}
	.c6{fill:#333333;}
	.c5{fill:#FFFFFF;}
	.c2{fill:#333333;}
	.c7{opacity:0.4;fill:#FFFFFF;}
	.st0{fill:#EF7D9B;stroke:#B4195A;stroke-width:1.5;stroke-linecap:round;stroke-linejoin:round;stroke-miterlimit:10;}
	.st1{fill:none;stroke:#B4195A;stroke-width:1.5;stroke-linecap:round;stroke-linejoin:round;stroke-miterlimit:10;}
	.st2{fill:#EF7D9B;}
	.st3{opacity:0.6;fill:#CCCCCC;}
	.st4{fill:#FCDE63;stroke:#B4195A;stroke-miterlimit:10;}
	.st5{fill:#CCCCCC;}
	.st6{fill:url(#SVGID_1_);}
	.st7{fill:url(#SVGID_2_);}
	.st8{fill:url(#SVGID_3_);}
	.st9{fill:url(#SVGID_4_);}
	.st10{fill:url(#SVGID_5_);}
	.st11{opacity:0.3;fill:#F2F2F2;}
	.st12{fill:none;stroke:#B4195A;stroke-linecap:round;stroke-linejoin:round;stroke-miterlimit:10;}
	.st13{opacity:0.3;fill:#FFFFFF;}
	.st14{fill:#FCDE63;}
	.st15{fill:#E6E6E6;}
	.st16{fill:#FCE97A;}
	.st17{clip-path:url(#SVGID_7_);}
	.st18{fill:url(#SVGID_8_);}
	.st19{fill:#FFFFFF;}
	.st20{fill:url(#SVGID_9_);}
	.st21{fill:none;stroke:#B4195A;stroke-miterlimit:10;}
	.st22{display:none;fill:#333333;}
	.st23{display:none;}
	.st24{display:inline;fill:#FFFFFF;}
	.st25{display:inline;fill:#333333;}
	.st26{display:inline;}
	.st27{fill:#333333;}
	.st28{fill:#FCE97A;stroke:#B4195A;stroke-width:1.5;stroke-linecap:round;stroke-linejoin:round;stroke-miterlimit:10;}
	.st29{opacity:0.5;fill:#CCCCCC;}
	.st30{fill:url(#SVGID_10_);}
	.st31{fill:url(#SVGID_11_);}
	.st32{fill:url(#SVGID_12_);}
	.st33{fill:url(#SVGID_13_);}
	.st34{fill:url(#SVGID_14_);}
	.st35{fill:none;stroke:#333333;stroke-width:1.5;stroke-linecap:round;stroke-linejoin:round;stroke-miterlimit:10;}
	.st36{fill:#FFFFFF;stroke:#B4195A;stroke-linecap:round;stroke-linejoin:round;stroke-miterlimit:10;}
	.st37{clip-path:url(#SVGID_16_);}
	.st38{fill:url(#SVGID_17_);}
	.st39{fill:url(#SVGID_18_);}
	.st40{display:inline;fill:#FCE97A;stroke:#B4195A;stroke-linecap:round;stroke-linejoin:round;stroke-miterlimit:10;}
	.st41{clip-path:url(#SVGID_20_);}
	.st42{fill:url(#SVGID_21_);}
	.st43{fill:url(#SVGID_22_);}
	.st44{fill:#E54C4C;}
	.st45{fill:#F45B5B;}
	.st46{fill:url(#SVGID_23_);}
	.st47{fill:url(#SVGID_24_);}
	.st48{fill:url(#SVGID_25_);}
	.st49{fill:url(#SVGID_26_);}
	.st50{fill:url(#SVGID_27_);}
	.st51{fill:url(#SVGID_28_);}
	.st52{fill:url(#SVGID_29_);}
	.st53{fill:url(#SVGID_30_);}
	.st54{fill:url(#SVGID_31_);}
	.st55{fill:url(#SVGID_32_);}
	.st56{fill:url(#SVGID_33_);}
	.st57{fill:#FFD939;stroke:#333333;stroke-width:1.5;stroke-linecap:round;stroke-linejoin:round;stroke-miterlimit:10;}
	.st58{opacity:0.4;fill:#FFFFFF;}
	.st59{clip-path:url(#SVGID_35_);}
	.st60{fill:url(#SVGID_36_);}
	.st61{fill:url(#SVGID_37_);}
	.st62{fill:url(#SVGID_38_);}
	.st63{fill:url(#SVGID_39_);}
	.st64{fill:url(#SVGID_40_);}
	.st65{opacity:0.4;}
	.st66{opacity:0.7;fill:#FFFFFF;}
	.st67{clip-path:url(#SVGID_42_);}
	.st68{fill:url(#SVGID_43_);}
	.st69{fill:none;stroke:#333333;stroke-linecap:round;stroke-linejoin:round;stroke-miterlimit:10;}
	.st70{opacity:0.4;fill:#CCCCCC;}
	.st71{clip-path:url(#SVGID_45_);}
	
		.st72{clip-path:url(#SVGID_45_);fill:none;stroke:#B4195A;stroke-width:1.5;stroke-linecap:round;stroke-linejoin:round;stroke-miterlimit:10;}
</style>
<g id="p4">
	<g>
		<path class="st0" d="M50.6,104.5c0,0-4.9,3.4-7.7,0c-2.8-3.4-0.7-13.7-7.3-16.2C29,85.8,23.1,90,25.6,98c0.3,0.9,1.4,3.1,3.4,2.3
			c2.1-0.8,1.6-2.9,1.1-4.1c-0.6-1.2-1.2-4.8,3.5-4.1c5.5,0.9,2.8,13.8,7.6,16.9c3.9,2.6,8.7-0.7,8.7-0.7"/>
		<g>
			<path class="st2" d="M98.8,12.5L83,12.4C81,6.1,75,5,75,5c3.2,1.7,0.9,6.4,0.9,6.4c-2.1-9.5-11.4-7.3-11.4-7.3
				c3.5,0.5,2.7,5.7,2.7,5.7C64.5,4.1,56,7.3,56,7.3c4.6,0.5,6,4.8,6.1,5.1l-20.7-0.1c-9.4,0-17,7.5-17,16.9l-0.1,34
				c0,9.4,7.5,17,16.9,17l57.4,0.2c9.4,0,17-7.5,17-16.9l0.1-34C115.8,20.2,108.2,12.5,98.8,12.5z"/>
			<path class="st3" d="M115.6,56.5c0,9.4-7.7,17-17,16.9l-57.4-0.2c-9.2,0-16.7-7.4-16.9-16.6l0,6.5c0,9.4,7.5,17,16.9,17l57.4,0.2
				c9.4,0,17-7.5,17-16.9l0.1-34c0-0.2,0-0.3,0-0.5L115.6,56.5z"/>
			<g>
				<path class="st13" d="M75.9,11.3c1.8,0.6,5.6,2.3,7.1,7.2l15.8,0.1c9.2,0,16.7,7.4,16.9,16.6l0-5.6c0-9.4-7.5-17-16.9-17
					L83,12.4C81,6.1,75,5,75,5C78,6.6,76.2,10.6,75.9,11.3z"/>
				<path class="st13" d="M24.4,35.2c0-9.4,7.7-17,17-16.9l20.7,0.1c-0.1-0.3-1.5-4.6-6.1-5.1c0,0,8.5-3.2,11.2,2.5
					c0,0,0.7-5.3-2.7-5.7c0,0,9.2-2.2,11.4,7.3c0,0,2.4-4.6-0.9-6.4c0,0,0.3,0.1,0.8,0.2c-2.2-9.3-11.3-7.2-11.3-7.2
					c3.5,0.5,2.7,5.7,2.7,5.7C64.5,4.1,56,7.3,56,7.3c4.6,0.5,6,4.8,6.1,5.1l-20.7-0.1c-9.4,0-17,7.5-17,16.9l-0.1,34
					c0,0.1,0,0.3,0,0.4L24.4,35.2z"/>
			</g>
			<path class="st14" d="M97.7,68.4H40.3c-4.9,0-8.8-3.9-8.8-8.8V37.2c0-4.9,3.9-8.8,8.8-8.8h57.4c4.9,0,8.8,3.9,8.8,8.8v22.4
				C106.5,64.4,102.6,68.4,97.7,68.4z"/>
			<path class="st15" d="M97.7,68.4H40.3c-4.9,0-8.8-3.9-8.8-8.8V37.2c0-4.9,3.9-8.8,8.8-8.8h57.4c4.9,0,8.8,3.9,8.8,8.8v22.4
				C106.5,64.4,102.6,68.4,97.7,68.4z"/>
			<path class="st16" d="M106.8,41.8c0-4.9-3.9-8.8-8.8-8.8H40.6c-4.9,0-8.8,3.9-8.8,8.8v17.4c0,4.9,3.9,8.8,8.8,8.8H98
				c4.9,0,8.8-3.9,8.8-8.8V41.8z"/>
			<g>
				<defs>
					<path id="SVGID_19_" d="M106.6,42.3c0-4.9-3.9-8.8-8.8-8.8H40.4c-4.9,0-8.8,3.9-8.8,8.8v17.4c0,4.9,3.9,8.8,8.8,8.8h57.4
						c4.9,0,8.8-3.9,8.8-8.8V42.3z"/>
				</defs>
				<clipPath id="SVGID_1_">
					<use xlink:href="#SVGID_19_"  style="overflow:visible;"/>
				</clipPath>
				<g style="clip-path:url(#SVGID_1_);">
					
						<radialGradient id="SVGID_2_" cx="40.1467" cy="64.1308" r="12.454" gradientTransform="matrix(1 0 0 0.9 0 6.4131)" gradientUnits="userSpaceOnUse">
						<stop  offset="0" style="stop-color:#EF7D9B;stop-opacity:0.6"/>
						<stop  offset="1" style="stop-color:#EF7D9B;stop-opacity:0"/>
					</radialGradient>
					<circle class="st7" cx="40.1" cy="64.1" r="13.4"/>
					<circle class="st19" cx="39.2" cy="55" r="0.7"/>
					<circle class="st19" cx="36.7" cy="57.3" r="1.2"/>
				</g>
				<g style="clip-path:url(#SVGID_1_);">
					
						<radialGradient id="SVGID_3_" cx="-490.9194" cy="64.1308" r="12.454" gradientTransform="matrix(-1 0 0 0.9 -393.44 6.4131)" gradientUnits="userSpaceOnUse">
						<stop  offset="0" style="stop-color:#EF7D9B;stop-opacity:0.6"/>
						<stop  offset="1" style="stop-color:#EF7D9B;stop-opacity:0"/>
					</radialGradient>
					<circle class="st8" cx="97.5" cy="64.1" r="13.4"/>
					<circle class="st19" cx="98.4" cy="55" r="0.7"/>
					<circle class="st19" cx="100.9" cy="57.3" r="1.2"/>
				</g>
			</g>
			<path class="st21" d="M106.5,59.4c0,5-4,9-9,9h-57c-5,0-9-4-9-9v-22c0-5,4-9,9-9h57c5,0,9,4,9,9V59.4z"/>
			
				<ellipse transform="matrix(0.2283 -0.9736 0.9736 0.2283 51.79 155.7997)" class="st2" cx="124.2" cy="45.2" rx="15.1" ry="15.1"/>
			
				<ellipse transform="matrix(0.7071 -0.7071 0.7071 0.7071 -27.3474 24.4397)" class="st2" cx="15.8" cy="45.2" rx="15.1" ry="15.1"/>
			<g>
				<path class="st1" d="M118.1,39.4c3.3-3.3,8.8-3.3,12.1,0c3.3,3.3,3.3,8.8,0,12.1"/>
				<path class="st1" d="M123,47.9c-2.1-2.1-2.1-5.5,0-7.6c2.1-2.1,5.5-2.1,7.6,0"/>
			</g>
			<g>
				<path class="st1" d="M21.4,39.4c-3.3-3.3-8.8-3.3-12.1,0c-3.3,3.3-3.3,8.8,0,12.1"/>
				<path class="st1" d="M16.4,47.9c2.1-2.1,2.1-5.5,0-7.6c-2.1-2.1-5.5-2.1-7.6,0"/>
			</g>
			<g class="st23">
				<g class="st26">
					<path class="st2" d="M36.4,62.3c-0.1,0-0.2,0-0.3,0c-0.5-0.1-0.8-0.7-0.7-1.2l0.9-3.4c0.1-0.5,0.7-0.8,1.2-0.7
						c0.5,0.1,0.8,0.7,0.7,1.2l-0.9,3.4C37.2,62,36.8,62.3,36.4,62.3z"/>
				</g>
				<g class="st26">
					<path class="st2" d="M39.8,62.3c-0.1,0-0.2,0-0.3,0c-0.5-0.1-0.8-0.7-0.7-1.2l0.9-3.4c0.1-0.5,0.7-0.8,1.2-0.7
						c0.5,0.1,0.8,0.7,0.7,1.2l-0.9,3.4C40.6,62,40.2,62.3,39.8,62.3z"/>
				</g>
				<g class="st26">
					<path class="st2" d="M103.1,62.3c-0.4,0-0.8-0.3-1-0.7l-0.9-3.4c-0.1-0.5,0.2-1.1,0.7-1.2c0.5-0.1,1.1,0.2,1.2,0.7l0.9,3.4
						c0.1,0.5-0.2,1.1-0.7,1.2C103.3,62.2,103.2,62.3,103.1,62.3z"/>
				</g>
				<g class="st26">
					<path class="st2" d="M99.7,62.3c-0.4,0-0.8-0.3-1-0.7l-0.9-3.4c-0.1-0.5,0.2-1.1,0.7-1.2c0.5-0.1,1.1,0.2,1.2,0.7l0.9,3.4
						c0.1,0.5-0.2,1.1-0.7,1.2C99.9,62.3,99.8,62.3,99.7,62.3z"/>
				</g>
			</g>
			<g>
				<path class="st12" d="M118.1,39.4c3.3-3.3,8.8-3.3,12.1,0c3.3,3.3,3.3,8.8,0,12.1"/>
				<path class="st12" d="M123,47.9c-2.1-2.1-2.1-5.5,0-7.6c2.1-2.1,5.5-2.1,7.6,0"/>
			</g>
			<g>
				<path class="st12" d="M21.4,39.4c-3.3-3.3-8.8-3.3-12.1,0c-3.3,3.3-3.3,8.8,0,12.1"/>
				<path class="st12" d="M16.4,47.9c2.1-2.1,2.1-5.5,0-7.6c-2.1-2.1-5.5-2.1-7.6,0"/>
			</g>
			<path class="st1" d="M98.8,12.5L83,12.4C81,6.1,75,5,75,5c3.2,1.7,0.9,6.4,0.9,6.4c-2.1-9.5-11.4-7.3-11.4-7.3
				c3.5,0.5,2.7,5.7,2.7,5.7C64.5,4.1,56,7.3,56,7.3c4.6,0.5,6,4.8,6.1,5.1l-20.7-0.1c-9.4,0-17,7.5-17,16.9l-0.1,34
				c0,9.4,7.5,17,16.9,17l57.4,0.2c9.4,0,17-7.5,17-16.9l0.1-34C115.8,20.2,108.2,12.5,98.8,12.5z"/>
			<path class="st1" d="M124.2,30.1c-3.1,0-6,1-8.4,2.6l-0.1,25c2.4,1.7,5.4,2.6,8.5,2.6c8.3,0,15.1-6.8,15.1-15.1
				C139.3,36.9,132.5,30.1,124.2,30.1z"/>
			<path class="st1" d="M24.4,32.8c-2.4-1.7-5.4-2.6-8.5-2.6c-8.3,0-15.1,6.8-15.1,15.1c0,8.3,6.8,15.1,15.1,15.1c3.1,0,6-1,8.4-2.6
				L24.4,32.8z"/>
			<circle class="st22" cx="44" cy="45.3" r="7.2"/>
			<g class="st23">
				<path class="st24" d="M50.2,43.3c0,2-1.6,3.6-3.6,3.6c-2,0-3.6-1.6-3.6-3.6c0-2,1.6-3.6,3.6-3.6C48.5,39.6,50.2,41.3,50.2,43.3z
					"/>
				<path class="st24" d="M44.2,48.9c0,1.4-1.1,2.5-2.5,2.5c-1.4,0-2.5-1.1-2.5-2.5c0-1.4,1.1-2.5,2.5-2.5
					C43.1,46.4,44.2,47.5,44.2,48.9z"/>
				<path class="st24" d="M48.5,48.7c0,0.7-0.6,1.3-1.3,1.3c-0.7,0-1.3-0.6-1.3-1.3c0-0.7,0.6-1.4,1.3-1.4
					C47.9,47.3,48.5,47.9,48.5,48.7z"/>
				<path class="st24" d="M41.3,44.9c0,0.7-0.6,1.3-1.3,1.3c-0.7,0-1.3-0.6-1.3-1.3c0-0.7,0.6-1.3,1.3-1.3
					C40.7,43.6,41.3,44.2,41.3,44.9z"/>
			</g>
			<g class="st23">
				<circle class="st25" cx="92.5" cy="45.3" r="7.2"/>
				<g class="st26">
					<path class="c5" d="M86.8,43.3c0,2,1.6,3.6,3.6,3.6
						c2,0,3.6-1.6,3.6-3.6c0-2-1.6-3.6-3.6-3.6C88.4,39.6,86.8,41.3,86.8,43.3z"/>
					<circle class="c5" cx="95.2" cy="48.9" r="2.5"/>
					<path class="c5" d="M88.4,48.7c0,0.7,0.6,1.3,1.3,1.3
						c0.7,0,1.3-0.6,1.3-1.3c0-0.7-0.6-1.4-1.3-1.4C89,47.3,88.4,47.9,88.4,48.7z"/>
					<path class="c5" d="M95.6,44.9c0,0.7,0.6,1.3,1.3,1.3
						c0.7,0,1.3-0.6,1.3-1.3c0-0.7-0.6-1.3-1.3-1.3C96.2,43.6,95.6,44.2,95.6,44.9z"/>
				</g>
			</g>
			<path class="st44" d="M77.4,57.7c0.8,1.5,1.3,3.2,1.3,5c0,5.7-4.6,10.4-10.4,10.4c-5.7,0-10.4-4.6-10.4-10.4c0-1.8,0.5-3.5,1.3-5
				c0,0,8.7,0.1,9.7-3.8C69,53.9,70.7,57,77.4,57.7z"/>
			<path class="st45" d="M59.1,67.3c0,0,4-4.3,9.3-1.2c0,0,4.3-3.4,9.8,1.2c0,0-3.3,6-9.8,5.7C61.8,72.9,59.1,67.3,59.1,67.3z"/>
			<g>
				<path class="st1" d="M85.2,52.9c0,2.7-3.6,4.8-8.1,4.8c-4.5,0-8.1-2.2-8.1-4.8c0,2.7-3.7,4.8-8.1,4.8c-4.5,0-8.1-2.2-8.1-4.8"/>
			</g>
			<path class="st1" d="M59.3,57.7c-0.8,1.5-1.3,3.2-1.3,5c0,5.7,4.6,10.4,10.4,10.4c5.7,0,10.4-4.6,10.4-10.4c0-1.8-0.5-3.5-1.3-5"
				/>
			<g>
				<g>
					<path class="st27" d="M37.2,38.8c0,0-0.3,2.7-0.3,6.5l2.4-5.4C39.4,39.9,37.9,41.1,37.2,38.8z"/>
				</g>
				<circle class="c2" cx="44.1" cy="45.3" r="7.2"/>
				<g>
					<path class="c5" d="M50.3,43.3c0,2-1.6,3.6-3.6,3.6
						c-2,0-3.6-1.6-3.6-3.6c0-2,1.6-3.6,3.6-3.6C48.7,39.6,50.3,41.3,50.3,43.3z"/>
					<path class="c5" d="M44.3,48.9c0,1.4-1.1,2.5-2.5,2.5
						c-1.4,0-2.5-1.1-2.5-2.5c0-1.4,1.1-2.5,2.5-2.5C43.2,46.4,44.3,47.5,44.3,48.9z"/>
					<path class="c5" d="M48.6,48.7c0,0.7-0.6,1.3-1.3,1.3
						c-0.7,0-1.3-0.6-1.3-1.3c0-0.7,0.6-1.4,1.3-1.4C48,47.3,48.6,47.9,48.6,48.7z"/>
					<path class="c5" d="M41.5,44.9c0,0.7-0.6,1.3-1.3,1.3
						c-0.7,0-1.3-0.6-1.3-1.3c0-0.7,0.6-1.3,1.3-1.3C40.9,43.6,41.5,44.2,41.5,44.9z"/>
				</g>
			</g>
			<g>
				<g>
					<path class="st27" d="M100.8,38.8c0,0,0.3,2.7,0.3,6.5l-2.4-5.4C98.6,39.9,100.1,41.1,100.8,38.8z"/>
				</g>
				<circle class="c6" cx="93.9" cy="45.3" r="7.2"/>
				<g>
					<path class="c4" d="M87.7,43.3c0,2,1.6,3.6,3.6,3.6
						c2,0,3.6-1.6,3.6-3.6c0-2-1.6-3.6-3.6-3.6C89.3,39.6,87.7,41.3,87.7,43.3z"/>
					<path class="c4" d="M93.7,48.9c0,1.4,1.1,2.5,2.5,2.5
						s2.5-1.1,2.5-2.5c0-1.4-1.1-2.5-2.5-2.5S93.7,47.5,93.7,48.9z"/>
					<path class="c4" d="M89.4,48.7c0,0.7,0.6,1.3,1.3,1.3
						c0.7,0,1.3-0.6,1.3-1.3c0-0.7-0.6-1.4-1.3-1.4C90,47.3,89.4,47.9,89.4,48.7z"/>
					<path class="c4" d="M96.5,44.9c0,0.7,0.6,1.3,1.3,1.3
						c0.7,0,1.3-0.6,1.3-1.3c0-0.7-0.6-1.3-1.3-1.3C97.1,43.6,96.5,44.2,96.5,44.9z"/>
				</g>
			</g>
		</g>
		<g>
			<g>
				<path class="st2" d="M63.2,126.1c0-4.5,3-8.1,6.7-8.1s6.7,3.6,6.7,8.1l13.4,0.4c0-25.5-5.9-47.9-5.9-47.9H55.6
					c0,0-5.9,22.5-5.9,47.9L63.2,126.1z"/>
				<path class="st3" d="M76.6,122.1c0-4.5-3-8.1-6.7-8.1c-3.7,0-6.7,3.6-6.7,8.1l-13.4,0.4c0,1.3-0.1,2.7-0.1,4l13.4-0.4
					c0-4.5,3-8.1,6.7-8.1c3.7,0,6.7,3.6,6.7,8.1l13.4,0.4c0-1.3,0-2.7-0.1-4L76.6,122.1z"/>
				<path class="st3" d="M55.6,84.2h28.6c0,0,5,19.2,5.8,42.3l0.1,0c0-25.5-5.9-47.9-5.9-47.9H55.6c0,0-5.9,22.5-5.9,47.9l0.1,0
					C50.6,103.5,55.6,84.2,55.6,84.2z"/>
				<circle class="st4" cx="70" cy="97.1" r="11.8"/>
				<circle class="c7" cx="70" cy="97.1" r="8.8"/>
				<path class="st5" d="M70,87.6c6.1,0,11.2,4.7,11.7,10.6c0-0.4,0.1-0.8,0.1-1.2c0-6.5-5.3-11.8-11.8-11.8
					c-6.5,0-11.8,5.3-11.8,11.8c0,0.4,0,0.8,0.1,1.2C58.8,92.3,63.9,87.6,70,87.6z"/>
				<linearGradient id="SVGID_4_" gradientUnits="userSpaceOnUse" x1="63.0956" y1="92.3949" x2="69.1213" y2="102.6888">
					<stop  offset="0" style="stop-color:#0068B6"/>
					<stop  offset="0.5054" style="stop-color:#004EA1"/>
					<stop  offset="1" style="stop-color:#004179"/>
				</linearGradient>
				<path class="st9" d="M67.2,99.4h4v-4h-4v-4.8h0.1c-1.4,0-4.1,1.2-4.1,3.9c0,0.5,0,0.9,0,0.9v4.2v3.8c0,0,0.4-0.1,0.8-0.1
					c0.3,0,3.2,0,3.2,0V99.4z"/>
				<linearGradient id="SVGID_5_" gradientUnits="userSpaceOnUse" x1="69.7314" y1="90.5795" x2="77.4737" y2="102.5449">
					<stop  offset="0" style="stop-color:#7DCCF3"/>
					<stop  offset="0.5" style="stop-color:#2CA6E0"/>
					<stop  offset="1" style="stop-color:#0068B6"/>
				</linearGradient>
				<path class="st10" d="M75.8,90.6H72h-4v4.8h4v8c0,0,0.3,0,0.4,0l-0.1,0.2c1,0,3.6-0.1,3.6-2.8v-1.1v-4.2c0,0,0-3.4,0-3.8
					C76,91.2,75.8,90.6,75.8,90.6z"/>
				<g>
					<linearGradient id="SVGID_7_" gradientUnits="userSpaceOnUse" x1="69.7199" y1="97.7392" x2="72.0031" y2="100.1366">
						<stop  offset="0" style="stop-color:#B4B4B5"/>
						<stop  offset="0.9946" style="stop-color:#B4B4B5;stop-opacity:0"/>
					</linearGradient>
					<polygon style="fill:url(#SVGID_7_);" points="71.2,95.6 71.2,95.6 67.8,99.4 71.2,99.4 					"/>
					<linearGradient id="SVGID_8_" gradientUnits="userSpaceOnUse" x1="65.6073" y1="101.8726" x2="67.8708" y2="104.2493">
						<stop  offset="0" style="stop-color:#B4B4B5"/>
						<stop  offset="0.9946" style="stop-color:#B4B4B5;stop-opacity:0"/>
					</linearGradient>
					<path class="st18" d="M67.2,99.7l-3.8,3.8c0.1,0.1,0.4-0.1,0.6-0.1c0.3,0,3.2,0,3.2,0V99.7z"/>
				</g>
				<linearGradient id="SVGID_9_" gradientUnits="userSpaceOnUse" x1="72.4782" y1="95.8228" x2="75.5068" y2="99.0029">
					<stop  offset="0" style="stop-color:#B4B4B5"/>
					<stop  offset="0.9946" style="stop-color:#B4B4B5;stop-opacity:0"/>
				</linearGradient>
				<path class="st20" d="M76,91.4l-3.8,4H72v8c0,0,0.3,0,0.4,0l-0.1,0.2c1,0,3.6-0.1,3.6-2.8v-1.1v-4.2c0,0,0-3.4,0-3.8
					C76,91.5,76,91.5,76,91.4z"/>
				<path class="st11" d="M81.7,95.7L71.5,85.4c-0.5-0.1-1-0.1-1.5-0.1c-3.3,0-6.4,1.4-8.5,3.6l16.7,16.7c2.2-2.1,3.6-5.2,3.6-8.5
					C81.8,96.6,81.8,96.1,81.7,95.7z"/>
				<path class="st11" d="M58.7,93.9l14.6,14.6c1.3-0.4,2.6-1,3.7-1.8L60.5,90.2C59.7,91.3,59.1,92.5,58.7,93.9z"/>
				<path class="st1" d="M63.5,126.4c0-4.5,2.7-8.4,6.4-8.4s6.7,4,6.7,8.5H90c0-0.3,0-0.5,0-0.8c0-0.3,0-0.6,0-1
					c-0.3-24.8-5.9-46.2-5.9-46.2H55.6c0,0-5.9,22.5-5.9,47.9L63.5,126.4z"/>
				<circle class="st12" cx="70" cy="97.1" r="11.8"/>
			</g>
			<path class="st0" d="M80.8,92.5c0,0,3.1,8.3,6.2,8.5c3.1,0.2,9.4-1.7,4.3-13.8C86.3,75.1,80.8,92.5,80.8,92.5z"/>
			<path class="st0" d="M59.2,92.5c0,0-3.1,8.3-6.2,8.5c-3.1,0.2-9.4-1.7-4.3-13.8C53.7,75.1,59.2,92.5,59.2,92.5z"/>
			<g>
				
					<ellipse transform="matrix(0.6916 -0.7222 0.7222 0.6916 -41.875 67.4707)" class="st0" cx="58.1" cy="82.8" rx="9.7" ry="9.7"/>
				<ellipse transform="matrix(0.231 -0.973 0.973 0.231 -16.916 144.1504)" class="st0" cx="82.7" cy="82.8" rx="9.7" ry="9.7"/>
			</g>
		</g>
		<g>
			<path class="st28" d="M109,18.1c0,0,2.2-9.2-2.9-13.4c-5.1-4.2-10.2,3.9-6.9,6.7c-3.4-2.8-10.4,3.8-5.3,8
				c5.1,4.2,13.7,0.4,13.7,0.4"/>
			<path class="st28" d="M113.6,21.9c0,0,8.6-3.8,13.7,0.4s-1.9,10.8-5.3,8c3.4,2.8-1.8,10.9-6.9,6.7s-2.9-13.4-2.9-13.4"/>
			<ellipse transform="matrix(0.6381 -0.77 0.77 0.6381 24.0129 92.7294)" class="st28" cx="110.6" cy="20.8" rx="9.1" ry="7.4"/>
		</g>
	</g>
</g>
</svg>
