<?xml version="1.0" encoding="utf-8"?>
<!-- Generator: Adobe Illustrator 22.0.1, SVG Export Plug-In . SVG Version: 6.00 Build 0)  -->
<svg version="1.1" xmlns="http://www.w3.org/2000/svg" xmlns:xlink="http://www.w3.org/1999/xlink" x="0px" y="0px"
	 viewBox="0 0 140 130" style="enable-background:new 0 0 140 130;" xml:space="preserve">
<style type="text/css">
	.c5{fill:#FFFFFF;}
	.c2{fill:#333333;}
	.c7{opacity:0.4;fill:#FFFFFF;}
	.st0{fill:#EF7D9B;stroke:#B4195A;stroke-width:1.5;stroke-linecap:round;stroke-linejoin:round;stroke-miterlimit:10;}
	.st1{fill:none;stroke:#B4195A;stroke-width:1.5;stroke-linecap:round;stroke-linejoin:round;stroke-miterlimit:10;}
	.st2{fill:#EF7D9B;}
	.st3{opacity:0.6;fill:#CCCCCC;}
	.st4{fill:#FCDE63;stroke:#B4195A;stroke-miterlimit:10;}
	.st5{fill:#CCCCCC;}
	.st6{fill:url(#SVGID_1_);}
	.st7{fill:url(#SVGID_2_);}
	.st8{fill:url(#SVGID_3_);}
	.st9{fill:url(#SVGID_4_);}
	.st10{fill:url(#SVGID_5_);}
	.st11{opacity:0.3;fill:#F2F2F2;}
	.st12{fill:none;stroke:#B4195A;stroke-linecap:round;stroke-linejoin:round;stroke-miterlimit:10;}
	.st13{opacity:0.3;fill:#FFFFFF;}
	.st14{fill:#FCDE63;}
	.st15{fill:#E6E6E6;}
	.st16{fill:#FCE97A;}
	.st17{clip-path:url(#SVGID_7_);}
	.st18{fill:url(#SVGID_8_);}
	.st19{fill:#FFFFFF;}
	.st20{fill:url(#SVGID_9_);}
	.st21{fill:none;stroke:#B4195A;stroke-miterlimit:10;}
	.st22{display:none;fill:#333333;}
	.st23{display:none;}
	.st24{display:inline;fill:#FFFFFF;}
	.st25{display:inline;fill:#333333;}
	.st26{display:inline;}
	.st27{fill:#333333;}
	.st28{fill:#FCE97A;stroke:#B4195A;stroke-width:1.5;stroke-linecap:round;stroke-linejoin:round;stroke-miterlimit:10;}
	.st29{opacity:0.5;fill:#CCCCCC;}
	.st30{fill:url(#SVGID_10_);}
	.st31{fill:url(#SVGID_11_);}
	.st32{fill:url(#SVGID_12_);}
	.st33{fill:url(#SVGID_13_);}
	.st34{fill:url(#SVGID_14_);}
	.st35{fill:none;stroke:#333333;stroke-width:1.5;stroke-linecap:round;stroke-linejoin:round;stroke-miterlimit:10;}
	.st36{fill:#FFFFFF;stroke:#B4195A;stroke-linecap:round;stroke-linejoin:round;stroke-miterlimit:10;}
	.st37{clip-path:url(#SVGID_16_);}
	.st38{fill:url(#SVGID_17_);}
	.st39{fill:url(#SVGID_18_);}
	.st40{display:inline;fill:#FCE97A;stroke:#B4195A;stroke-linecap:round;stroke-linejoin:round;stroke-miterlimit:10;}
	.st41{clip-path:url(#SVGID_20_);}
	.st42{fill:url(#SVGID_21_);}
	.st43{fill:url(#SVGID_22_);}
	.st44{fill:#E54C4C;}
	.st45{fill:#F45B5B;}
	.st46{fill:url(#SVGID_23_);}
	.st47{fill:url(#SVGID_24_);}
	.st48{fill:url(#SVGID_25_);}
	.st49{fill:url(#SVGID_26_);}
	.st50{fill:url(#SVGID_27_);}
	.st51{fill:url(#SVGID_28_);}
	.st52{fill:url(#SVGID_29_);}
	.st53{fill:url(#SVGID_30_);}
	.st54{fill:url(#SVGID_31_);}
	.st55{fill:url(#SVGID_32_);}
	.st56{fill:url(#SVGID_33_);}
	.st57{fill:#FFD939;stroke:#333333;stroke-width:1.5;stroke-linecap:round;stroke-linejoin:round;stroke-miterlimit:10;}
	.st58{opacity:0.4;fill:#FFFFFF;}
	.st59{clip-path:url(#SVGID_35_);}
	.st60{fill:url(#SVGID_36_);}
	.st61{fill:url(#SVGID_37_);}
	.st62{fill:url(#SVGID_38_);}
	.st63{fill:url(#SVGID_39_);}
	.st64{fill:url(#SVGID_40_);}
	.st65{opacity:0.4;}
	.st66{opacity:0.7;fill:#FFFFFF;}
	.st67{clip-path:url(#SVGID_42_);}
	.st68{fill:url(#SVGID_43_);}
	.st69{fill:none;stroke:#333333;stroke-linecap:round;stroke-linejoin:round;stroke-miterlimit:10;}
	.st70{opacity:0.4;fill:#CCCCCC;}
	.st71{clip-path:url(#SVGID_45_);}
	
		.st72{clip-path:url(#SVGID_45_);fill:none;stroke:#B4195A;stroke-width:1.5;stroke-linecap:round;stroke-linejoin:round;stroke-miterlimit:10;}
</style>
<g id="p5">
	<g>
		<path class="st0" d="M80.1,102.1c0,0,5.3,3.8,8.4,0c3.1-3.8,0.8-14.9,8-17.7c7.2-2.8,13.7,1.8,11,10.6c-0.4,1-1.6,3.4-3.7,2.6
			c-2.2-0.9-1.8-3.2-1.2-4.5c0.6-1.3,1.3-5.3-3.8-4.4c-6,1-3,15.1-8.3,18.5c-4.2,2.8-9.5-0.7-9.5-0.7"/>
		<path class="st0" d="M69.8,118.7c1.4,3.4,4.4,4.5,12,2.9l1.4,1l2.2-8.3c0,0-6.9-1-5.7-3.6c4.4-9.2-0.1-33.2-0.1-33.2H48.8
			c0,0-5.2,22.3-3.4,47.2c0,0.5-1.1,0.5-0.5,1.8l11,0.8c0.3-9.3,3.3-12.2,7.3-12.2C66.2,115,68.7,116.1,69.8,118.7z"/>
		<circle class="st4" cx="64.3" cy="97.4" r="12.7"/>
		<path class="st5" d="M64.3,87.2c6.5,0,11.9,5,12.5,11.3c0-0.4,0.1-0.8,0.1-1.2c0-6.9-5.6-12.6-12.6-12.6
			c-6.9,0-12.6,5.6-12.6,12.6c0,0.4,0,0.8,0.1,1.2C52.4,92.2,57.8,87.2,64.3,87.2z"/>
		<circle class="c7" cx="64.3" cy="97.4" r="9.5"/>
		<linearGradient id="SVGID_1_" gradientUnits="userSpaceOnUse" x1="56.867" y1="92.3182" x2="63.3528" y2="103.3981">
			<stop  offset="0" style="stop-color:#0068B6"/>
			<stop  offset="0.5054" style="stop-color:#004EA1"/>
			<stop  offset="1" style="stop-color:#004179"/>
		</linearGradient>
		<path class="st6" d="M61.3,99.8h4.3v-4.3h-4.3v-5.2h0.1c-1.5,0-4.4,1.2-4.4,4.2c0,0.6,0,1,0,1v4.5v4.1c0,0,0.4-0.1,0.8-0.1
			c0.4,0,3.5,0,3.5,0V99.8z"/>
		<linearGradient id="SVGID_2_" gradientUnits="userSpaceOnUse" x1="64.0094" y1="90.3642" x2="72.3429" y2="103.2432">
			<stop  offset="0" style="stop-color:#7DCCF3"/>
			<stop  offset="0.5" style="stop-color:#2CA6E0"/>
			<stop  offset="1" style="stop-color:#0068B6"/>
		</linearGradient>
		<path class="st7" d="M70.5,90.4h-4.1h-4.3v5.2h4.3v8.6c0,0,0.3,0,0.5,0l-0.1,0.2c1,0,3.9-0.1,3.9-3.1v-1.2v-4.5c0,0,0-3.6,0-4.1
			C70.8,91.1,70.5,90.4,70.5,90.4z"/>
		<g>
			<linearGradient id="SVGID_3_" gradientUnits="userSpaceOnUse" x1="63.9971" y1="98.0706" x2="66.4546" y2="100.651">
				<stop  offset="0" style="stop-color:#B4B4B5"/>
				<stop  offset="0.9946" style="stop-color:#B4B4B5;stop-opacity:0"/>
			</linearGradient>
			<polygon class="st8" points="65.6,95.8 65.6,95.8 61.9,99.8 65.6,99.8 			"/>
			<linearGradient id="SVGID_4_" gradientUnits="userSpaceOnUse" x1="59.5704" y1="102.5196" x2="62.0068" y2="105.0778">
				<stop  offset="0" style="stop-color:#B4B4B5"/>
				<stop  offset="0.9946" style="stop-color:#B4B4B5;stop-opacity:0"/>
			</linearGradient>
			<path class="st9" d="M61.3,100.1l-4.1,4.1c0.1,0.1,0.5-0.1,0.6-0.1c0.4,0,3.5,0,3.5,0V100.1z"/>
		</g>
		<linearGradient id="SVGID_5_" gradientUnits="userSpaceOnUse" x1="66.966" y1="96.0079" x2="70.2259" y2="99.4308">
			<stop  offset="0" style="stop-color:#B4B4B5"/>
			<stop  offset="0.9946" style="stop-color:#B4B4B5;stop-opacity:0"/>
		</linearGradient>
		<path class="st10" d="M70.7,91.3l-4.1,4.3h-0.2v8.6c0,0,0.3,0,0.5,0l-0.1,0.2c1,0,3.9-0.1,3.9-3.1v-1.2v-4.5c0,0,0-3.6,0-4.1
			C70.8,91.4,70.8,91.3,70.7,91.3z"/>
		<path class="st11" d="M76.9,95.8l-11-11c-0.5-0.1-1-0.1-1.6-0.1c-3.6,0-6.8,1.5-9.1,3.9l17.9,17.9c2.4-2.3,3.9-5.6,3.9-9.1
			C77,96.9,77,96.3,76.9,95.8z"/>
		<path class="st11" d="M52.1,93.9l15.7,15.7c1.4-0.4,2.8-1.1,3.9-1.9L54,89.9C53.2,91.1,52.5,92.5,52.1,93.9z"/>
		<circle class="st12" cx="64.3" cy="97.4" r="12.7"/>
		<g>
			<path class="st2" d="M100.8,13.4l-15.8-1c-1.6-6.5-7.6-7.9-7.6-7.9c3.1,1.9,0.5,6.4,0.5,6.4c-1.5-9.6-10.9-8-10.9-8
				c3.5,0.7,2.4,5.9,2.4,5.9c-2.4-5.9-11.1-3.2-11.1-3.2c4.6,0.8,5.7,5.2,5.7,5.5L43.5,9.7c-9.4-0.6-17.4,6.5-18,15.8l-2.2,33.9
				c-0.6,9.4,6.5,17.4,15.8,18l57.3,3.8c9.4,0.6,17.4-6.5,18-15.8l2.2-33.9C117.2,22.1,110.2,14,100.8,13.4z"/>
			<path class="st3" d="M114.8,58.4c-0.6,9.4-8.7,16.4-18,15.8l-57.3-3.8c-9.2-0.6-16.2-8.4-15.8-17.6l-0.4,6.5
				c-0.6,9.4,6.5,17.4,15.8,18l57.3,3.8c9.4,0.6,17.4-6.5,18-15.8l2.2-33.9c0-0.2,0-0.3,0-0.5L114.8,58.4z"/>
			<g>
				<path class="st13" d="M78,10.8c1.7,0.7,5.4,2.7,6.7,7.6l15.8,1c9.2,0.6,16.2,8.5,15.8,17.7l0.4-5.6c0.6-9.4-6.5-17.4-15.8-18
					l-15.8-1c-1.6-6.5-7.6-7.9-7.6-7.9C80.3,6.3,78.4,10.1,78,10.8z"/>
				<path class="st13" d="M25.1,31.5c0.6-9.4,8.7-16.4,18-15.8L63.8,17c-0.1-0.3-1.2-4.7-5.7-5.5c0,0,8.7-2.7,11.1,3.2
					c0,0,1.1-5.2-2.4-5.9c0,0,9.4-1.6,10.9,8c0,0,2.7-4.4-0.5-6.4c0,0,0.3,0.1,0.8,0.3c-1.6-9.4-10.9-7.9-10.9-7.9
					c3.5,0.7,2.4,5.9,2.4,5.9c-2.4-5.9-11.1-3.2-11.1-3.2c4.6,0.8,5.7,5.2,5.7,5.5L43.5,9.7c-9.4-0.6-17.4,6.5-18,15.8l-2.2,33.9
					c0,0.1,0,0.3,0,0.4L25.1,31.5z"/>
			</g>
			<path class="st14" d="M96.2,69.1l-57.3-3.6c-4.9-0.3-8.5-4.5-8.2-9.3l1.4-22.3c0.3-4.9,4.5-8.5,9.3-8.2l57.3,3.6
				c4.9,0.3,8.5,4.5,8.2,9.3l-1.4,22.3C105.2,65.7,101.1,69.4,96.2,69.1z"/>
			<path class="st15" d="M96.2,69.1l-57.3-3.6c-4.9-0.3-8.5-4.5-8.2-9.3l1.4-22.3c0.3-4.9,4.5-8.5,9.3-8.2l57.3,3.6
				c4.9,0.3,8.5,4.5,8.2,9.3l-1.4,22.3C105.2,65.7,101.1,69.4,96.2,69.1z"/>
			<path class="st16" d="M106.9,43.2c0.3-4.9-3.4-9-8.2-9.3l-57.3-3.6c-4.9-0.3-9,3.4-9.3,8.2L31,55.9c-0.3,4.9,3.4,9,8.2,9.3
				l57.3,3.6c4.9,0.3,9-3.4,9.3-8.2L106.9,43.2z"/>
			<path class="st21" d="M105.6,60.6c-0.3,5-4.6,8.7-9.5,8.4l-56.9-3.5c-5-0.3-8.7-4.6-8.4-9.5l1.4-22c0.3-5,4.6-8.7,9.5-8.4
				l56.9,3.5c5,0.3,8.7,4.6,8.4,9.5L105.6,60.6z"/>
			
				<ellipse transform="matrix(0.2882 -0.9576 0.9576 0.2882 42.6794 152.7181)" class="st2" cx="124.1" cy="47.7" rx="15.1" ry="15.1"/>
			
				<ellipse transform="matrix(0.7445 -0.6676 0.6676 0.7445 -23.2531 21.0915)" class="st2" cx="15.9" cy="40.9" rx="15.1" ry="15.1"/>
			<g>
				<path class="st1" d="M118.3,41.5c3.5-3.1,9-2.8,12.1,0.8c3.1,3.5,2.8,9-0.8,12.1"/>
				<path class="st1" d="M122.8,50.2c-2-2.2-1.8-5.6,0.5-7.6c2.2-2,5.6-1.8,7.6,0.5"/>
			</g>
			<g>
				<path class="st1" d="M21.8,35.5c-3.1-3.5-8.5-3.9-12.1-0.8C6.2,37.8,5.8,43.3,9,46.8"/>
				<path class="st1" d="M16.3,43.6c2.2-2,2.4-5.4,0.5-7.6c-2-2.2-5.4-2.4-7.6-0.5"/>
			</g>
			<g class="st23">
				<g class="st26">
					<path class="st2" d="M38.2,55.4c-0.1,0-0.2,0-0.3-0.1c-0.5-0.2-0.8-0.8-0.6-1.3l1.1-3.3c0.2-0.5,0.8-0.8,1.3-0.6
						c0.5,0.2,0.8,0.8,0.6,1.3l-1.1,3.3C39,55.1,38.6,55.4,38.2,55.4z"/>
				</g>
				<g class="st26">
					<path class="st2" d="M41.6,55.6c-0.1,0-0.2,0-0.3-0.1c-0.5-0.2-0.8-0.8-0.6-1.3l1.1-3.3c0.2-0.5,0.8-0.8,1.3-0.6
						c0.5,0.2,0.8,0.8,0.6,1.3l-1.1,3.3C42.4,55.4,42,55.6,41.6,55.6z"/>
				</g>
				<g class="st26">
					<path class="st2" d="M94.8,58.9c-0.4,0-0.8-0.3-0.9-0.8l-0.7-3.4c-0.1-0.5,0.2-1.1,0.8-1.2c0.5-0.1,1.1,0.2,1.2,0.8l0.7,3.4
						c0.1,0.5-0.2,1.1-0.8,1.2C95,58.9,94.9,58.9,94.8,58.9z"/>
				</g>
				<g class="st26">
					<path class="st2" d="M91.4,58.7c-0.4,0-0.8-0.3-0.9-0.8l-0.7-3.4c-0.1-0.5,0.2-1.1,0.8-1.2c0.5-0.1,1.1,0.2,1.2,0.8l0.7,3.4
						c0.1,0.5-0.2,1.1-0.8,1.2C91.6,58.7,91.5,58.7,91.4,58.7z"/>
				</g>
			</g>
			<g>
				<path class="st12" d="M118.3,41.5c3.5-3.1,9-2.8,12.1,0.8c3.1,3.5,2.8,9-0.8,12.1"/>
				<path class="st12" d="M122.8,50.2c-2-2.2-1.8-5.6,0.5-7.6c2.2-2,5.6-1.8,7.6,0.5"/>
			</g>
			<g>
				<path class="st12" d="M21.8,35.5c-3.1-3.5-8.5-3.9-12.1-0.8C6.2,37.8,5.8,43.3,9,46.8"/>
				<path class="st12" d="M16.3,43.6c2.2-2,2.4-5.4,0.5-7.6c-2-2.2-5.4-2.4-7.6-0.5"/>
			</g>
			<path class="st1" d="M100.8,13.4l-15.8-1c-1.6-6.5-7.6-7.9-7.6-7.9c3.1,1.9,0.5,6.4,0.5,6.4c-1.5-9.6-10.9-8-10.9-8
				c3.5,0.7,2.4,5.9,2.4,5.9c-2.4-5.9-11.1-3.2-11.1-3.2c4.6,0.8,5.7,5.2,5.7,5.5L43.5,9.7c-9.4-0.6-17.4,6.5-18,15.8l-2.2,33.9
				c-0.6,9.4,6.5,17.4,15.8,18l57.3,3.8c9.4,0.6,17.4-6.5,18-15.8l2.2-33.9C117.2,22.1,110.2,14,100.8,13.4z"/>
			<path class="st1" d="M125,32.6c-3.1-0.2-6.1,0.6-8.6,2l-1.6,24.9c2.3,1.8,5.2,3,8.3,3.2c8.3,0.5,15.5-5.8,16-14.1
				C139.7,40.3,133.3,33.1,125,32.6z"/>
			<path class="st1" d="M25.2,29c-2.3-1.8-5.2-3-8.4-3.2C8.5,25.3,1.4,31.7,0.9,40C0.3,48.3,6.7,55.5,15,56c3.1,0.2,6.1-0.6,8.6-2.1
				L25.2,29z"/>
			<circle class="st22" cx="44.1" cy="42.7" r="7.2"/>
			<g class="st23">
				<path class="st24" d="M50.3,41.1c-0.1,2-1.9,3.5-3.9,3.4c-2-0.1-3.5-1.9-3.4-3.9c0.1-2,1.9-3.5,3.9-3.4
					C48.9,37.4,50.5,39.1,50.3,41.1z"/>
				<path class="st24" d="M44,46.3c-0.1,1.4-1.3,2.4-2.6,2.3C40,48.6,39,47.4,39.1,46c0.1-1.4,1.3-2.4,2.6-2.3
					C43.1,43.8,44.1,45,44,46.3z"/>
				<path class="st24" d="M48.3,46.4c0,0.7-0.7,1.3-1.4,1.3c-0.7,0-1.3-0.7-1.3-1.4c0-0.7,0.7-1.3,1.4-1.3
					C47.8,45,48.4,45.7,48.3,46.4z"/>
				<path class="st24" d="M41.4,42.2c0,0.7-0.7,1.3-1.4,1.3c-0.7,0-1.3-0.7-1.3-1.4c0-0.7,0.7-1.3,1.4-1.3
					C40.9,40.8,41.5,41.5,41.4,42.2z"/>
			</g>
			<g class="st23">
				<circle class="st25" cx="92.5" cy="45.7" r="7.2"/>
				<g class="st26">
					<path class="c5" d="M86.8,43.4c-0.1,2,1.4,3.7,3.4,3.9
						c2,0.1,3.7-1.4,3.9-3.4c0.1-2-1.4-3.7-3.4-3.9S87,41.4,86.8,43.4z"/>
					<circle class="c5" cx="94.9" cy="49.5" r="2.5"/>
					<path class="c5" d="M88.2,48.9c0,0.7,0.5,1.4,1.3,1.4
						s1.4-0.5,1.4-1.3c0-0.7-0.5-1.4-1.3-1.4C88.9,47.6,88.2,48.1,88.2,48.9z"/>
					<path class="c5" d="M95.6,45.6c0,0.7,0.5,1.4,1.3,1.4
						c0.7,0,1.4-0.5,1.4-1.3c0-0.7-0.5-1.4-1.3-1.4C96.2,44.3,95.6,44.8,95.6,45.6z"/>
				</g>
			</g>
			<g>
				<path class="st27" d="M74.8,47.2c0,0,0.7-0.6,1.4-0.1c5.9,3.6,14.3,3.1,17.7-2.3c0,0-4.2,2.9-10,2.8c-2.1-0.1-4.8-0.3-6.6-0.9
					C75.1,45.9,74.8,47.2,74.8,47.2z"/>
				<path class="st27" d="M93.9,44.8c0,1,2.8,1.7,4.2,1.1c-1.7,1.7-4.7,2.3-7,1.5L93.9,44.8z"/>
			</g>
			<g>
				<path class="st27" d="M59.6,46c0,0-0.6-0.7-1.4-0.3c-6.2,3-14.5,1.4-17.3-4.3c0,0,3.8,3.4,9.6,3.9c2.1,0.2,4.8,0.2,6.6-0.2
					C59.5,44.6,59.6,46,59.6,46z"/>
				<path class="st27" d="M40.9,41.4c-0.1,0.9-2.9,1.3-4.3,0.6c1.5,1.8,4.4,2.8,6.8,2.2L40.9,41.4z"/>
			</g>
			<path class="st1" d="M57.5,57.2c-0.2,3.2,3.5,6,8.3,6.3c4.8,0.3,8.8-2,9-5.2"/>
		</g>
		<g class="st23">
			<path class="st40" d="M102.6,30.8c0,0,1.4-6.1-1.9-8.8s-6.8,2.6-4.5,4.4c-2.2-1.8-6.9,2.5-3.5,5.3s9,0.2,9,0.2"/>
			<path class="st40" d="M105.6,33.3c0,0,5.7-2.5,9,0.2s-1.3,7.1-3.5,5.3c2.2,1.8-1.2,7.2-4.5,4.4s-1.9-8.8-1.9-8.8"/>
			<ellipse transform="matrix(0.6381 -0.77 0.77 0.6381 12.436 91.593)" class="st40" cx="103.7" cy="32.6" rx="6" ry="4.9"/>
		</g>
		<path class="st0" d="M76.5,83.4c0,0,3,8.1,6,8.2s9.1-1.6,4.2-13.3C81.8,66.7,76.5,83.4,76.5,83.4z"/>
		<path class="st0" d="M50.7,81.5c0,0-2,8.5-4.9,9c-3,0.6-9.4-0.4-6-12.8C43.3,65.4,50.7,81.5,50.7,81.5z"/>
		<ellipse transform="matrix(0.5933 -0.805 0.805 0.5933 -38.4951 68.2626)" class="st0" cx="48.3" cy="72.2" rx="10" ry="10"/>
		<ellipse transform="matrix(0.231 -0.973 0.973 0.231 -11.4586 133.9317)" class="st0" cx="79" cy="74.2" rx="9.7" ry="9.7"/>
		
			<radialGradient id="SVGID_7_" cx="-49.4176" cy="45.5951" r="19.0382" gradientTransform="matrix(1.2933 7.962669e-02 -9.385945e-03 0.1534 130.9123 49.7436)" gradientUnits="userSpaceOnUse">
			<stop  offset="0" style="stop-color:#EF7D9B;stop-opacity:0.8"/>
			<stop  offset="1" style="stop-color:#EF7D9B;stop-opacity:0"/>
		</radialGradient>
		<path style="fill:url(#SVGID_7_);" d="M91.4,54.3c-0.1,1.7-11.3,2.3-25,1.4s-24.8-2.9-24.7-4.5s11.3-2.3,25-1.4
			S91.5,52.7,91.4,54.3z"/>
		<g>
			<path class="st28" d="M109.4,20.5c0,0,2.2-9.2-2.9-13.4c-5.1-4.2-10.2,3.9-6.9,6.7c-3.4-2.8-10.4,3.8-5.3,8
				c5.1,4.2,13.7,0.4,13.7,0.4"/>
			<path class="st28" d="M114,24.3c0,0,8.6-3.8,13.7,0.4c5.1,4.2-1.9,10.8-5.3,8c3.4,2.8-1.8,10.9-6.9,6.7
				c-5.1-4.2-2.9-13.4-2.9-13.4"/>
			<ellipse transform="matrix(0.6381 -0.77 0.77 0.6381 22.2654 93.8635)" class="st28" cx="111" cy="23.2" rx="9.1" ry="7.4"/>
		</g>
	</g>
</g>
</svg>
