<?xml version="1.0" encoding="utf-8"?>
<!-- Generator: Adobe Illustrator 22.0.1, SVG Export Plug-In . SVG Version: 6.00 Build 0)  -->
<svg version="1.1" xmlns="http://www.w3.org/2000/svg" xmlns:xlink="http://www.w3.org/1999/xlink" x="0px" y="0px"
	 viewBox="0 0 140 130" style="enable-background:new 0 0 140 130;" xml:space="preserve">
<style type="text/css">
	.c4{fill:#FFFFFF;}
	.c6{fill:#333333;}
	.st0{fill:#EF7D9B;stroke:#B4195A;stroke-width:1.5;stroke-linecap:round;stroke-linejoin:round;stroke-miterlimit:10;}
	.st1{fill:none;stroke:#B4195A;stroke-width:1.5;stroke-linecap:round;stroke-linejoin:round;stroke-miterlimit:10;}
	.st2{fill:#EF7D9B;}
	.st3{opacity:0.6;fill:#CCCCCC;}
	.st4{fill:#FCDE63;stroke:#B4195A;stroke-miterlimit:10;}
	.st5{opacity:0.4;fill:#FFFFFF;}
	.st6{fill:#CCCCCC;}
	.st7{fill:url(#SVGID_1_);}
	.st8{fill:url(#SVGID_2_);}
	.st9{fill:url(#SVGID_3_);}
	.st10{fill:url(#SVGID_4_);}
	.st11{fill:url(#SVGID_5_);}
	.st12{opacity:0.3;fill:#F2F2F2;}
	.st13{fill:none;stroke:#B4195A;stroke-linecap:round;stroke-linejoin:round;stroke-miterlimit:10;}
	.st14{opacity:0.3;fill:#FFFFFF;}
	.st15{fill:#FCDE63;}
	.st16{fill:#E6E6E6;}
	.st17{fill:#FCE97A;}
	.st18{clip-path:url(#SVGID_7_);}
	.st19{fill:url(#SVGID_8_);}
	.st20{fill:#FFFFFF;}
	.st21{fill:url(#SVGID_9_);}
	.st22{fill:none;stroke:#B4195A;stroke-miterlimit:10;}
	.st23{display:none;fill:#333333;}
	.st24{display:none;}
	.st25{display:inline;fill:#FFFFFF;}
	.st26{display:inline;fill:#333333;}
	.st27{display:inline;}
	.st28{fill:#333333;}
	.st29{fill:#FCE97A;stroke:#B4195A;stroke-width:1.5;stroke-linecap:round;stroke-linejoin:round;stroke-miterlimit:10;}
	.st30{opacity:0.5;fill:#CCCCCC;}
	.st31{fill:url(#SVGID_10_);}
	.st32{fill:url(#SVGID_11_);}
	.st33{fill:url(#SVGID_12_);}
	.st34{fill:url(#SVGID_13_);}
	.st35{fill:url(#SVGID_14_);}
	.st36{fill:none;stroke:#333333;stroke-width:1.5;stroke-linecap:round;stroke-linejoin:round;stroke-miterlimit:10;}
	.st37{fill:#FFFFFF;stroke:#B4195A;stroke-linecap:round;stroke-linejoin:round;stroke-miterlimit:10;}
	.st38{clip-path:url(#SVGID_16_);}
	.st39{fill:url(#SVGID_17_);}
	.st40{fill:url(#SVGID_18_);}
	.st41{display:inline;fill:#FCE97A;stroke:#B4195A;stroke-linecap:round;stroke-linejoin:round;stroke-miterlimit:10;}
	.st42{clip-path:url(#SVGID_20_);}
	.st43{fill:url(#SVGID_21_);}
	.st44{fill:url(#SVGID_22_);}
	.st45{fill:#E54C4C;}
	.st46{fill:#F45B5B;}
	.st47{fill:url(#SVGID_23_);}
	.st48{fill:url(#SVGID_24_);}
	.st49{fill:url(#SVGID_25_);}
	.st50{fill:url(#SVGID_26_);}
	.st51{fill:url(#SVGID_27_);}
	.st52{fill:url(#SVGID_28_);}
	.st53{fill:url(#SVGID_29_);}
	.st54{fill:url(#SVGID_30_);}
	.st55{fill:url(#SVGID_31_);}
	.st56{fill:url(#SVGID_32_);}
	.st57{fill:url(#SVGID_33_);}
	.st58{fill:#FFD939;stroke:#333333;stroke-width:1.5;stroke-linecap:round;stroke-linejoin:round;stroke-miterlimit:10;}
	.st59{clip-path:url(#SVGID_35_);}
	.st60{fill:url(#SVGID_36_);}
	.st61{fill:url(#SVGID_37_);}
	.st62{fill:url(#SVGID_38_);}
	.st63{fill:url(#SVGID_39_);}
	.st64{fill:url(#SVGID_40_);}
	.st65{opacity:0.4;}
	.st66{opacity:0.7;fill:#FFFFFF;}
	.st67{clip-path:url(#SVGID_42_);}
	.st68{fill:url(#SVGID_43_);}
	.st69{fill:none;stroke:#333333;stroke-linecap:round;stroke-linejoin:round;stroke-miterlimit:10;}
	.st70{opacity:0.4;fill:#CCCCCC;}
	.st71{clip-path:url(#SVGID_45_);}
	
		.st72{clip-path:url(#SVGID_45_);fill:none;stroke:#B4195A;stroke-width:1.5;stroke-linecap:round;stroke-linejoin:round;stroke-miterlimit:10;}
</style>
<g id="p6">
	<g>
		<path class="st2" d="M76,114c12.2-1.5,10.3-14.9,9.5-17.9c-0.8-3-3.6-17.1-3.6-17.1H59.7c0,0-6.7,12.4-4.8,24
			c1.9,11.6,10.9,13.6,16,12.5"/>
		<path class="st58" d="M55.9,88.6c-1.1,4.2-1.8,9.3-1,14.2c0.5,3,1.4,5.3,2.7,7.1c3.3-2.2,5.5-5.9,5.5-10.2
			C63.1,94.7,60.1,90.5,55.9,88.6z"/>
		<path class="st5" d="M55.5,92.1c-0.7,2.8-1.2,6.2-0.7,9.4c0.3,2,1,3.5,1.8,4.7c2.2-1.4,3.7-3.9,3.7-6.8
			C60.2,96.2,58.3,93.4,55.5,92.1z"/>
		<polyline class="st2" points="62.7,114.4 65.2,125.5 64.4,126.6 77.5,126 83.1,110.5 		"/>
		<path class="st2" d="M102.4,80.9c-2.1,0-4,0.8-5.6,2c-7.5,6-1.9,15.3-10.9,19l-0.6,4.6c12.9-5.9,7-13.9,14-20.8
			c0.9-0.7,2-1.2,3.2-1.2c2.7,0,4.9,2.2,4.9,4.9c0,1.5-0.6,2.8-1.7,3.7c-0.1,0-0.1,0.1-0.2,0.1c-0.3,0.3-0.6,0.8-0.6,1.3
			c0,1,0.8,1.9,1.9,1.9c0.3,0,0.7-0.1,0.9-0.3c0.2-0.1,0.3-0.3,0.5-0.4c1.7-1.6,2.8-3.8,2.8-6.3C111,84.7,107.2,80.9,102.4,80.9z"/>
		<g>
			<path class="st14" d="M85.9,103.9c9-3.7,3.4-13,10.9-19c1.6-1.2,3.4-2,5.6-2c4.4,0,8.1,3.3,8.5,7.6c0-0.3,0.1-0.6,0.1-0.9
				c0-4.7-3.8-8.6-8.6-8.6c-2.1,0-4,0.8-5.6,2c-7.5,6-1.9,15.3-10.9,19l-0.6,4.6c0.1,0,0.2-0.1,0.3-0.1L85.9,103.9z"/>
			<path class="st14" d="M105.7,95c1-0.9,1.7-2.2,1.7-3.7c0-0.3,0-0.6-0.1-1c-0.2,1.1-0.8,2-1.6,2.7c-0.1,0-0.1,0.1-0.2,0.1
				c-0.3,0.3-0.6,0.8-0.6,1.3c0,0.3,0.1,0.7,0.3,0.9c0.1-0.1,0.2-0.3,0.3-0.4C105.6,95.1,105.6,95.1,105.7,95z"/>
		</g>
		<path class="st3" d="M55.6,79.6l27,0.5l0.9,4.9c0,0-8.1,1-15.6,0.8c-7.5-0.2-14.8-0.9-14.8-0.9l2.5-5.4"/>
		<path class="st6" d="M63.2,114.9c0,0,4,1.2,7.9,0.4c0,0-2,4.8-7.1,4L63.2,114.9z"/>
		<path class="st6" d="M76.3,114.1c0,0,2,1.6,6-0.8c0.4-0.3,0-1.3,0-1.3S79,114,76.3,114.1z"/>
		<path class="st14" d="M83,85c0,0,4.4,26.2-5.8,28.6c0,0,7-0.2,8.6-9.3C87.5,95.2,83,85,83,85z"/>
		<g>
			<defs>
				<path id="SVGID_34_" d="M55.9,88.6c-1.1,4.2-1.8,9.3-1,14.2c0.5,3,1.4,5.3,2.7,7.1c3.3-2.2,5.5-5.9,5.5-10.2
					C63.1,94.7,60.1,90.5,55.9,88.6z"/>
			</defs>
			<clipPath id="SVGID_1_">
				<use xlink:href="#SVGID_34_"  style="overflow:visible;"/>
			</clipPath>
			<g style="clip-path:url(#SVGID_1_);">
				<linearGradient id="SVGID_2_" gradientUnits="userSpaceOnUse" x1="47.2" y1="95.5787" x2="52.8272" y2="105.1918">
					<stop  offset="0" style="stop-color:#0068B6"/>
					<stop  offset="0.5054" style="stop-color:#004EA1"/>
					<stop  offset="1" style="stop-color:#004179"/>
				</linearGradient>
				<path class="st8" d="M51,102h3.7v-3.7h-3.8v-4h-0.3c-1.3,0-3.4,0.4-3.4,3c0,0.5,0,0.9,0,0.9v3.8v3.5c0,0,0,0.3,0.3,0.3
					c0.3,0,3.2,0,3.5,0V102z"/>
				<linearGradient id="SVGID_3_" gradientUnits="userSpaceOnUse" x1="52.9391" y1="94.2256" x2="59.8177" y2="104.8561">
					<stop  offset="0" style="stop-color:#7DCCF3"/>
					<stop  offset="0.5" style="stop-color:#2CA6E0"/>
					<stop  offset="1" style="stop-color:#0068B6"/>
				</linearGradient>
				<path class="st9" d="M58.3,94.4h-3.5h-3.7v3.7H55v7.8c0.1,0,0.2,0,0.3,0v0c0.9,0,3.4-0.3,3.4-2.8v-1v-3.8c0,0,0-3.1,0-3.5
					C58.7,94.3,58.3,94.4,58.3,94.4z"/>
				<g>
					<linearGradient id="SVGID_4_" gradientUnits="userSpaceOnUse" x1="53.1647" y1="100.5034" x2="55.3881" y2="102.8379">
						<stop  offset="0" style="stop-color:#B4B4B5"/>
						<stop  offset="0.9946" style="stop-color:#B4B4B5;stop-opacity:0"/>
					</linearGradient>
					<polygon class="st10" points="54.7,98.4 54.7,98.4 51,102 54.7,102 					"/>
					<linearGradient id="SVGID_5_" gradientUnits="userSpaceOnUse" x1="49.4556" y1="104.2296" x2="51.772" y2="106.6619">
						<stop  offset="0" style="stop-color:#B4B4B5"/>
						<stop  offset="0.9946" style="stop-color:#B4B4B5;stop-opacity:0"/>
					</linearGradient>
					<path class="st11" d="M51,102.1l-3.7,3.7c0.1,0.1,0.1,0.1,0.3,0.1c0.3,0,3.2,0,3.5,0V102.1z"/>
				</g>
				<linearGradient id="SVGID_7_" gradientUnits="userSpaceOnUse" x1="55.2903" y1="98.6034" x2="58.102" y2="101.5556">
					<stop  offset="0" style="stop-color:#B4B4B5"/>
					<stop  offset="0.9946" style="stop-color:#B4B4B5;stop-opacity:0"/>
				</linearGradient>
				<path style="fill:url(#SVGID_7_);" d="M58.6,94.5L55,98.1h0v7.8c0.1,0,0.2,0,0.3,0v0c0.9,0,3.4-0.3,3.4-2.8v-1v-3.8
					c0,0,0-3.1,0-3.5C58.7,94.6,58.6,94.5,58.6,94.5z"/>
			</g>
		</g>
		<path class="st6" d="M55.9,92.5c3.6,1.7,6.3,5,7,9.1c0.1-0.6,0.2-1.3,0.2-2c0-4.9-2.9-9.2-7.1-11.1c-0.9,3.5-1.6,7.6-1.3,11.7
			C54.8,97.6,55.3,94.9,55.9,92.5z"/>
		<g class="st65">
			<path class="st20" d="M55.2,92.1l8,8c0,0-0.2,2.9-0.9,3.9l-7.6-7.6C54.7,96.4,54.6,93.4,55.2,92.1z"/>
			<path class="st20" d="M54.6,100.1l6.3,6.3c0,0-1,1.4-1.5,1.8l-4.9-4.9L54.6,100.1z"/>
		</g>
		<path class="st66" d="M57.4,83.9c0,0-8.5,20.9,3.9,29.7C61.3,113.6,54.6,105.8,57.4,83.9z"/>
		<path class="st6" d="M54.7,97.3c0,0-0.6,3.9,2.5,4.1c3.1,0.2,9.6-3.6,13.7-14c0,0-6.1,10-12.4,10.3L54.7,97.3z"/>
		<path class="st1" d="M76,114c12.2-1.5,10.3-14.9,9.5-17.9c-0.8-3-3.6-17.1-3.6-17.1H59.7c0,0-6.7,12.4-4.8,24
			c1.9,11.6,10.9,13.6,16,12.5"/>
		<path class="st1" d="M55.9,88.6c-1.1,4.2-1.8,9.3-1,14.2c0.5,3,1.4,5.3,2.7,7.1c3.3-2.2,5.5-5.9,5.5-10.2
			C63.1,94.7,60.1,90.5,55.9,88.6z"/>
		<polyline class="st1" points="62.7,114.4 65.2,125.5 64.4,126.6 77.5,126 83.1,110.5 		"/>
		<path class="st0" d="M52.5,89.1c-1.1,7.3,4.8,11,10.5,7.1c5.7-3.9,8.1-9,8.1-9"/>
		<path class="st1" d="M102.4,80.9c-2.1,0-4,0.8-5.6,2c-7.5,6-1.9,15.3-10.9,19l-0.6,4.6c12.9-5.9,7-13.9,14-20.8
			c0.9-0.7,2-1.2,3.2-1.2c2.7,0,4.9,2.2,4.9,4.9c0,1.5-0.6,2.8-1.7,3.7c-0.1,0-0.1,0.1-0.2,0.1c-0.3,0.3-0.6,0.8-0.6,1.3
			c0,1,0.8,1.9,1.9,1.9c0.3,0,0.7-0.1,0.9-0.3c0.2-0.1,0.3-0.3,0.5-0.4c1.7-1.6,2.8-3.8,2.8-6.3C111,84.7,107.2,80.9,102.4,80.9z"/>
		<path class="st2" d="M93.6,12l-11.3,0c0.7-1.6,2.4-4.4,5.7-4.8c0,0-8.5-3.4-11.2,2.4c0,0-0.7-5.4,2.7-5.8c0,0-9.2-2.2-11.4,7.3
			c0,0-2.4-4.3,0.9-6c0,0-6.1,0.6-8.3,6.9l-14.6-0.1c-9.4,0-17,7.5-17,16.9l-0.1,34c0,9.4,7.5,17,16.9,17l47.4,0.2
			c9.4,0,17-7.5,17-16.9l0.1-34C110.5,19.7,102.9,12,93.6,12z"/>
		<g>
			<path class="st14" d="M79.5,7.9c-3.5,0.5-2.7,5.8-2.7,5.8c1.3-2.8,4-3.4,6.4-3.3c0.9-1.4,2.5-3,4.9-3.2c0,0-6.4-2.6-9.9,0.5
				C78.9,7.8,79.5,7.9,79.5,7.9z"/>
			<path class="st14" d="M82.2,16.2l11.3,0c9.2,0,16.6,7.4,16.9,16.5l0-3.6c0-9.4-7.5-17-16.9-17l-7.7,0
				C83.9,13,82.8,14.9,82.2,16.2z"/>
			<path class="st14" d="M29.1,32.9c0-9.4,7.7-17,17-16.9l14.6,0.1c1.5-4.3,4.9-6,6.8-6.6C67.1,8.1,67,6,69,4.9c0,0-6.1,0.6-8.3,6.9
				l-14.6-0.1c-9.4,0-17,7.5-17,16.9l-0.1,34c0,0.2,0,0.4,0,0.6L29.1,32.9z"/>
			<path class="st14" d="M69,9.1c-0.2,0.1-0.3,0.2-0.4,0.3c-0.2,0.5-0.3,1-0.4,1.5c0,0-0.2-0.3-0.3-0.7c-1.3,2,0.3,4.9,0.3,4.9
				c1.4-6.1,5.7-7.4,8.6-7.5c0.1-1.6,0.7-3.7,2.8-4c0,0-8-1.9-10.8,5.5C68.9,9.2,69,9.1,69,9.1z"/>
		</g>
		<path class="st3" d="M110.4,55.7c0,9.4-7.7,17-17,16.9l-47.4-0.2c-9.1,0-16.5-7.2-16.9-16.1l0,6.4c0,9.4,7.5,17,16.9,17l47.4,0.2
			c9.4,0,17-7.5,17-16.9l0.1-34c0-0.3,0-0.6,0-0.9L110.4,55.7z"/>
		<path class="st17" d="M76.2,64.3c0,5-4,9-9,9H38c-5,0-9-4-9-9v-31h37.2c5.5,0,10,4.5,10,10V64.3z"/>
		<g>
			<defs>
				<path id="SVGID_41_" d="M75.5,47.6c0-4.9-3.9-8.8-8.8-8.8H38.8v35h27.8c4.9,0,8.8-3.9,8.8-8.8V47.6z"/>
			</defs>
			<clipPath id="SVGID_8_">
				<use xlink:href="#SVGID_41_"  style="overflow:visible;"/>
			</clipPath>
			<g style="clip-path:url(#SVGID_8_);">
				
					<radialGradient id="SVGID_9_" cx="-595.7886" cy="65.4418" r="12.454" gradientTransform="matrix(-1 0 0 0.9 -529.44 6.5442)" gradientUnits="userSpaceOnUse">
					<stop  offset="0" style="stop-color:#EF7D9B;stop-opacity:0.6"/>
					<stop  offset="1" style="stop-color:#EF7D9B;stop-opacity:0"/>
				</radialGradient>
				<circle class="st21" cx="66.3" cy="65.4" r="13.4"/>
				<circle class="st20" cx="67.3" cy="56.3" r="0.7"/>
				<circle class="st20" cx="69.8" cy="58.6" r="1.2"/>
			</g>
		</g>
		<path class="st22" d="M75.7,64.8c0,5-3.9,9-8.8,9H38c-4.8,0-9-4-9-9v-31h38c4.8,0,8.8,4,8.8,9V64.8z"/>
		<path class="st16" d="M66.7,32.1H29.1l-0.1,5h37.8c5,0,9,4,9,9v-5C75.7,36.2,71.7,32.1,66.7,32.1z"/>
		<g>
			<path class="st69" d="M81.5,59.5c2.6,2.1,5.9,3.4,9.5,3.4c8.3,0,15.1-6.8,15.1-15.1c0-8.3-6.8-15.1-15.1-15.1
				c-3.6,0-6.9,1.3-9.5,3.4"/>
			<g>
				<path class="st69" d="M87,44c2.6-2.6,6.8-2.6,9.4,0c2.6,2.6,2.6,6.8,0,9.4"/>
				<path class="st69" d="M90.8,50.6c-1.6-1.6-1.6-4.3,0-5.9c1.6-1.6,4.3-1.6,5.9,0"/>
			</g>
		</g>
		<path class="st6" d="M81.5,59.7c0,0,10.9,8.8,21.6-2.5c0,0-3,9.3-12,9.3C82.1,66.5,81.5,59.7,81.5,59.7z"/>
		<path class="st6" d="M97.4,45.4c0,0-1.7-2.9-4.7-1.8c-2.9,1.1-4.4,4.4-1.8,7c0,0-0.2-4.1,2.9-4.1c3.1,0,3.9,3.2,3.9,3.2
			S98.6,48.7,97.4,45.4z"/>
		<path class="st70" d="M81.5,36c0,0,3.6-3.8,11.7-2.8c8.2,1,14.3,9.1,12.6,17.4c0,0-0.9-8.5-9.4-13.4C90.9,34.1,86,35.5,81.5,36z"
			/>
		<g>
			<defs>
				<path id="SVGID_44_" d="M78,69.1c0,5.9-4,9.4-9,9.4l-26.3-0.2C32.5,78,29.6,67.7,29.6,61.8v-29H69c5,0,9,4.7,9,10.6V69.1z"/>
			</defs>
			<clipPath id="SVGID_10_">
				<use xlink:href="#SVGID_44_"  style="overflow:visible;"/>
			</clipPath>
			<g style="clip-path:url(#SVGID_10_);">
				<path class="st45" d="M38.1,60.7c0.5,1.4,0.7,3,0.7,4.8c0,5.4-2.6,9.8-5.8,9.8c-3.2,0-5.8-4.4-5.8-9.8c0-1.7-0.4-4.4,0-5.8
					c0,0,1.4-0.6,2.5-2.5C29.8,57.2,32,60.8,38.1,60.7z"/>
				<path class="st46" d="M20.2,69.9c0,0,3.8-4.1,8.8-1.2c0,0,3.7-3.5,8.9,0.9c0,0-2.5,5.9-8.9,5.7C22.9,75.1,20.2,69.9,20.2,69.9z"
					/>
				<g>
					<path class="st1" d="M45,56.2c0,2.5-3.4,4.6-7.6,4.6s-7.7-2-7.7-4.6c0,2.5-3.5,4.6-7.7,4.6s-7.6-2-7.6-4.6"/>
				</g>
			</g>
			
				<path style="clip-path:url(#SVGID_10_);fill:none;stroke:#B4195A;stroke-width:1.5;stroke-linecap:round;stroke-linejoin:round;stroke-miterlimit:10;" d="
				M27.6,60.8c-0.5,1.4-0.8,3-0.8,4.8c0,5.4,2.7,9.8,6,9.8c3.3,0,6-4.4,6-9.8c0-1.7-0.3-3.3-0.8-4.8"/>
		</g>
		<path class="st1" d="M93.6,12l-11.5,0c0.6-1.4,2.2-4.7,5.9-5c0,0-8.5-3.3-11.2,2.5c0,0-0.7-5.3,2.7-5.8c0,0-9.2-2.2-11.4,7.3
			c0,0-2.4-4.5,0.9-6.2c0,0-6.1,1.1-8.3,7.2l-14.6-0.1c-9.4,0-17,7.5-17,16.9l-0.1,34c0,9.4,7.5,17,16.9,17l47.4,0.2
			c9.4,0,17-7.5,17-16.9l0.1-34C110.5,19.7,102.9,12,93.6,12z"/>
		<g>
			<path class="st1" d="M81.5,59.5c2.6,2.1,5.9,3.4,9.5,3.4c8.3,0,15.1-6.8,15.1-15.1c0-8.3-6.8-15.1-15.1-15.1
				c-3.6,0-6.9,1.3-9.5,3.4"/>
			<g>
				<path class="st1" d="M87,44c2.6-2.6,6.8-2.6,9.4,0c2.6,2.6,2.6,6.8,0,9.4"/>
				<path class="st1" d="M90.8,50.6c-1.6-1.6-1.6-4.3,0-5.9c1.6-1.6,4.3-1.6,5.9,0"/>
			</g>
		</g>
		<ellipse transform="matrix(0.215 -0.9766 0.9766 0.215 -40.7281 116.0147)" class="st0" cx="51.8" cy="83.3" rx="8.2" ry="8.2"/>
		<g class="st24">
			<path class="st41" d="M70.8,32.3c0,0,1.4-6.1-1.9-8.8s-6.8,2.6-4.5,4.4c-2.2-1.8-6.9,2.5-3.5,5.3c3.3,2.8,9,0.2,9,0.2"/>
			<path class="st41" d="M73.8,34.8c0,0,5.7-2.5,9,0.2s-1.3,7.1-3.5,5.3c2.2,1.8-1.2,7.2-4.5,4.4s-1.9-8.8-1.9-8.8"/>
			<ellipse transform="matrix(0.6381 -0.77 0.77 0.6381 -0.2611 67.6423)" class="st41" cx="71.8" cy="34.1" rx="6" ry="4.9"/>
		</g>
		<g>
			<g>
				<path class="st28" d="M58.1,41.2c0,0,0.3,2.7,0.3,6.5L56,42.4C56,42.4,57.4,43.6,58.1,41.2z"/>
			</g>
			<circle class="c6" cx="51.2" cy="47.7" r="7.2"/>
			<g>
				<path class="c4" d="M45,45.7c0,2,1.6,3.6,3.6,3.6
					c2,0,3.6-1.6,3.6-3.6c0-2-1.6-3.6-3.6-3.6C46.7,42.1,45,43.7,45,45.7z"/>
				<path class="c4" d="M51,51.3c0,1.4,1.1,2.5,2.5,2.5
					c1.4,0,2.5-1.1,2.5-2.5c0-1.4-1.1-2.5-2.5-2.5C52.1,48.8,51,49.9,51,51.3z"/>
				<path class="c4" d="M46.7,51.1c0,0.7,0.6,1.3,1.3,1.3
					c0.7,0,1.3-0.6,1.3-1.3c0-0.7-0.6-1.3-1.3-1.3C47.3,49.8,46.7,50.4,46.7,51.1z"/>
				<path class="c4" d="M53.9,47.4c0,0.7,0.6,1.3,1.3,1.3
					c0.7,0,1.3-0.6,1.3-1.3c0-0.7-0.6-1.3-1.3-1.3C54.5,46,53.9,46.6,53.9,47.4z"/>
			</g>
		</g>
		<g>
			<path class="st29" d="M72.5,19.9c0,0,2.2-9.2-2.9-13.4c-5.1-4.2-10.2,3.9-6.9,6.7c-3.4-2.8-10.4,3.8-5.3,8s13.7,0.4,13.7,0.4"/>
			<path class="st29" d="M77.1,23.7c0,0,8.6-3.8,13.7,0.4c5.1,4.2-1.9,10.8-5.3,8c3.4,2.8-1.8,10.9-6.9,6.7
				c-5.1-4.2-2.9-13.4-2.9-13.4"/>
			<ellipse transform="matrix(0.6381 -0.77 0.77 0.6381 9.3745 65.2911)" class="st29" cx="74.1" cy="22.7" rx="9.1" ry="7.4"/>
		</g>
	</g>
</g>
</svg>
